<?xml version="1.0" encoding="UTF-8" standalone="no"?>
<!DOCTYPE svg PUBLIC "-//W3C//DTD SVG 1.1//EN"
 "http://www.w3.org/Graphics/SVG/1.1/DTD/svg11.dtd">
<!-- Generated by graphviz version 2.38.0 (20140413.2041)
 -->
<!-- Title: APIBitmap Pages: 1 -->
<svg width="567pt" height="84pt"
 viewBox="0.00 0.00 567.00 84.00" xmlns="http://www.w3.org/2000/svg" xmlns:xlink="http://www.w3.org/1999/xlink">
<g id="graph0" class="graph" transform="scale(1 1) rotate(0) translate(4 80)">
<title>APIBitmap</title>
<polygon fill="white" stroke="none" points="-4,4 -4,-80 563,-80 563,4 -4,4"/>
<!-- Node1 -->
<g id="node1" class="node"><title>Node1</title>
<polygon fill="#bfbfbf" stroke="black" points="243.5,-56.5 243.5,-75.5 309.5,-75.5 309.5,-56.5 243.5,-56.5"/>
<text text-anchor="middle" x="276.5" y="-63.5" font-family="Helvetica,sans-Serif" font-size="10.00">APIBitmap</text>
</g>
<!-- Node2 -->
<g id="node2" class="node"><title>Node2</title>
<g id="a_node2"><a xlink:title="An AGG API bitmap. ">
<polygon fill="white" stroke="#bfbfbf" points="0,-0.5 0,-19.5 73,-19.5 73,-0.5 0,-0.5"/>
<text text-anchor="middle" x="36.5" y="-7.5" font-family="Helvetica,sans-Serif" font-size="10.00">AGGBitmap</text>
</a>
</g>
</g>
<!-- Node1&#45;&gt;Node2 -->
<g id="edge1" class="edge"><title>Node1&#45;&gt;Node2</title>
<path fill="none" stroke="midnightblue" d="M233.48,-55.3205C187.79,-45.0402 116.334,-28.9627 73.2065,-19.259"/>
<polygon fill="midnightblue" stroke="midnightblue" points="232.857,-58.7677 243.381,-57.5482 234.393,-51.9384 232.857,-58.7677"/>
</g>
<!-- Node3 -->
<g id="node3" class="node"><title>Node3</title>
<g id="a_node3"><a xlink:title="A Cairo API bitmap. ">
<polygon fill="white" stroke="#bfbfbf" points="91.5,-0.5 91.5,-19.5 167.5,-19.5 167.5,-0.5 91.5,-0.5"/>
<text text-anchor="middle" x="129.5" y="-7.5" font-family="Helvetica,sans-Serif" font-size="10.00">CairoBitmap</text>
</a>
</g>
</g>
<!-- Node1&#45;&gt;Node3 -->
<g id="edge2" class="edge"><title>Node1&#45;&gt;Node3</title>
<path fill="none" stroke="midnightblue" d="M243.577,-52.9058C215.94,-42.7536 177.156,-28.5063 152.684,-19.5164"/>
<polygon fill="midnightblue" stroke="midnightblue" points="242.614,-56.2806 253.207,-56.4435 245.028,-49.71 242.614,-56.2806"/>
</g>
<!-- Node4 -->
<g id="node4" class="node"><title>Node4</title>
<g id="a_node4"><a xlink:title="An HTML5 canvas API bitmap. ">
<polygon fill="white" stroke="#bfbfbf" points="185.5,-0.5 185.5,-19.5 271.5,-19.5 271.5,-0.5 185.5,-0.5"/>
<text text-anchor="middle" x="228.5" y="-7.5" font-family="Helvetica,sans-Serif" font-size="10.00">CanvasBitmap</text>
</a>
</g>
</g>
<!-- Node1&#45;&gt;Node4 -->
<g id="edge3" class="edge"><title>Node1&#45;&gt;Node4</title>
<path fill="none" stroke="midnightblue" d="M261.772,-48.4314C253.36,-38.9673 243.151,-27.4827 236.279,-19.7511"/>
<polygon fill="midnightblue" stroke="midnightblue" points="259.314,-50.9342 268.574,-56.083 264.546,-46.2836 259.314,-50.9342"/>
</g>
<!-- Node5 -->
<g id="node5" class="node"><title>Node5</title>
<g id="a_node5"><a xlink:title="A LICE API bitmap. ">
<polygon fill="white" stroke="#bfbfbf" points="290,-0.5 290,-19.5 361,-19.5 361,-0.5 290,-0.5"/>
<text text-anchor="middle" x="325.5" y="-7.5" font-family="Helvetica,sans-Serif" font-size="10.00">LICEBitmap</text>
</a>
</g>
</g>
<!-- Node1&#45;&gt;Node5 -->
<g id="edge4" class="edge"><title>Node1&#45;&gt;Node5</title>
<path fill="none" stroke="midnightblue" d="M291.534,-48.4314C300.122,-38.9673 310.543,-27.4827 317.559,-19.7511"/>
<polygon fill="midnightblue" stroke="midnightblue" points="288.719,-46.3254 284.591,-56.083 293.903,-51.0293 288.719,-46.3254"/>
</g>
<!-- Node6 -->
<g id="node6" class="node"><title>Node6</title>
<g id="a_node6"><a xlink:title="An NanoVG API bitmap. ">
<polygon fill="white" stroke="#bfbfbf" points="379,-0.5 379,-19.5 470,-19.5 470,-0.5 379,-0.5"/>
<text text-anchor="middle" x="424.5" y="-7.5" font-family="Helvetica,sans-Serif" font-size="10.00">NanoVGBitmap</text>
</a>
</g>
</g>
<!-- Node1&#45;&gt;Node6 -->
<g id="edge5" class="edge"><title>Node1&#45;&gt;Node6</title>
<path fill="none" stroke="midnightblue" d="M309.647,-52.9058C337.472,-42.7536 376.52,-28.5063 401.159,-19.5164"/>
<polygon fill="midnightblue" stroke="midnightblue" points="308.146,-49.7279 299.951,-56.4435 310.545,-56.3038 308.146,-49.7279"/>
</g>
<!-- Node7 -->
<g id="node7" class="node"><title>Node7</title>
<g id="a_node7"><a xlink:href="class_skia_bitmap.html" target="_top" xlink:title="SkiaBitmap">
<polygon fill="white" stroke="black" points="488,-0.5 488,-19.5 559,-19.5 559,-0.5 488,-0.5"/>
<text text-anchor="middle" x="523.5" y="-7.5" font-family="Helvetica,sans-Serif" font-size="10.00">SkiaBitmap</text>
</a>
</g>
</g>
<!-- Node1&#45;&gt;Node7 -->
<g id="edge6" class="edge"><title>Node1&#45;&gt;Node7</title>
<path fill="none" stroke="midnightblue" d="M319.577,-55.5824C367.289,-45.1513 443.339,-28.525 487.842,-18.7956"/>
<polygon fill="midnightblue" stroke="midnightblue" points="318.577,-52.2182 309.555,-57.7734 320.072,-59.0567 318.577,-52.2182"/>
</g>
</g>
</svg>
