<?xml version="1.0" encoding="UTF-8" standalone="no"?>
<!DOCTYPE svg PUBLIC "-//W3C//DTD SVG 1.1//EN"
 "http://www.w3.org/Graphics/SVG/1.1/DTD/svg11.dtd">
<!-- Generated by graphviz version 2.38.0 (20140413.2041)
 -->
<!-- Title: IPlugVST3Processor Pages: 1 -->
<svg width="329pt" height="207pt"
 viewBox="0.00 0.00 329.00 207.00" xmlns="http://www.w3.org/2000/svg" xmlns:xlink="http://www.w3.org/1999/xlink">
<g id="graph0" class="graph" transform="scale(1 1) rotate(0) translate(4 203)">
<title>IPlugVST3Processor</title>
<polygon fill="white" stroke="none" points="-4,4 -4,-203 325,-203 325,4 -4,4"/>
<!-- Node1 -->
<g id="node1" class="node"><title>Node1</title>
<polygon fill="#bfbfbf" stroke="black" points="73,-0.5 73,-19.5 184,-19.5 184,-0.5 73,-0.5"/>
<text text-anchor="middle" x="128.5" y="-7.5" font-family="Helvetica,sans-Serif" font-size="10.00">IPlugVST3Processor</text>
</g>
<!-- Node2 -->
<g id="node2" class="node"><title>Node2</title>
<polygon fill="white" stroke="#bfbfbf" points="0,-56.5 0,-75.5 71,-75.5 71,-56.5 0,-56.5"/>
<text text-anchor="middle" x="35.5" y="-63.5" font-family="Helvetica,sans-Serif" font-size="10.00">AudioEffect</text>
</g>
<!-- Node2&#45;&gt;Node1 -->
<g id="edge1" class="edge"><title>Node2&#45;&gt;Node1</title>
<path fill="none" stroke="midnightblue" d="M59.3057,-51.1774C76.4189,-41.2407 98.9653,-28.1492 113.595,-19.6545"/>
<polygon fill="midnightblue" stroke="midnightblue" points="57.3325,-48.2758 50.4421,-56.324 60.8475,-54.3293 57.3325,-48.2758"/>
</g>
<!-- Node3 -->
<g id="node3" class="node"><title>Node3</title>
<g id="a_node3"><a xlink:href="class_i_plug_a_p_i_base.html" target="_top" xlink:title="The base class of an IPlug plug&#45;in, which interacts with the different plug&#45;in APIs. ">
<polygon fill="white" stroke="black" points="89.5,-56.5 89.5,-75.5 167.5,-75.5 167.5,-56.5 89.5,-56.5"/>
<text text-anchor="middle" x="128.5" y="-63.5" font-family="Helvetica,sans-Serif" font-size="10.00">IPlugAPIBase</text>
</a>
</g>
</g>
<!-- Node3&#45;&gt;Node1 -->
<g id="edge2" class="edge"><title>Node3&#45;&gt;Node1</title>
<path fill="none" stroke="midnightblue" d="M128.5,-45.8045C128.5,-36.9102 128.5,-26.7798 128.5,-19.7511"/>
<polygon fill="midnightblue" stroke="midnightblue" points="125,-46.083 128.5,-56.083 132,-46.083 125,-46.083"/>
</g>
<!-- Node4 -->
<g id="node4" class="node"><title>Node4</title>
<g id="a_node4"><a xlink:href="class_i_plugin_base.html" target="_top" xlink:title="Base class that contains plug&#45;in info and state manipulation methods. ">
<polygon fill="white" stroke="black" points="93,-118 93,-137 164,-137 164,-118 93,-118"/>
<text text-anchor="middle" x="128.5" y="-125" font-family="Helvetica,sans-Serif" font-size="10.00">IPluginBase</text>
</a>
</g>
</g>
<!-- Node4&#45;&gt;Node3 -->
<g id="edge3" class="edge"><title>Node4&#45;&gt;Node3</title>
<path fill="none" stroke="midnightblue" d="M128.5,-107.817C128.5,-96.9962 128.5,-83.898 128.5,-75.5091"/>
<polygon fill="midnightblue" stroke="midnightblue" points="125,-107.975 128.5,-117.975 132,-107.975 125,-107.975"/>
</g>
<!-- Node5 -->
<g id="node5" class="node"><title>Node5</title>
<g id="a_node5"><a xlink:href="class_i_editor_delegate.html" target="_top" xlink:title="This pure virtual interface delegates communication in both directions between a UI editor and someth...">
<polygon fill="white" stroke="black" points="57,-179.5 57,-198.5 200,-198.5 200,-179.5 57,-179.5"/>
<text text-anchor="middle" x="128.5" y="-186.5" font-family="Helvetica,sans-Serif" font-size="10.00">EDITOR_DELEGATE_CLASS</text>
</a>
</g>
</g>
<!-- Node5&#45;&gt;Node4 -->
<g id="edge4" class="edge"><title>Node5&#45;&gt;Node4</title>
<path fill="none" stroke="midnightblue" d="M128.5,-169.317C128.5,-158.496 128.5,-145.398 128.5,-137.009"/>
<polygon fill="midnightblue" stroke="midnightblue" points="125,-169.475 128.5,-179.475 132,-169.475 125,-169.475"/>
</g>
<!-- Node6 -->
<g id="node6" class="node"><title>Node6</title>
<g id="a_node6"><a xlink:href="class_i_plug_v_s_t3_processor_base.html" target="_top" xlink:title="Shared VST3 processor code. ">
<polygon fill="white" stroke="black" points="186,-56.5 186,-75.5 321,-75.5 321,-56.5 186,-56.5"/>
<text text-anchor="middle" x="253.5" y="-63.5" font-family="Helvetica,sans-Serif" font-size="10.00">IPlugVST3ProcessorBase</text>
</a>
</g>
</g>
<!-- Node6&#45;&gt;Node1 -->
<g id="edge5" class="edge"><title>Node6&#45;&gt;Node1</title>
<path fill="none" stroke="midnightblue" d="M224.259,-52.3678C200.85,-42.2553 168.659,-28.3486 148.214,-19.5164"/>
<polygon fill="midnightblue" stroke="midnightblue" points="223.125,-55.6907 233.693,-56.4435 225.901,-49.2647 223.125,-55.6907"/>
</g>
<!-- Node7 -->
<g id="node7" class="node"><title>Node7</title>
<g id="a_node7"><a xlink:href="class_i_plug_processor.html" target="_top" xlink:title="IPlugProcessor\&lt; PLUG\l_SAMPLE_DST \&gt;">
<polygon fill="white" stroke="black" points="192,-112.5 192,-142.5 315,-142.5 315,-112.5 192,-112.5"/>
<text text-anchor="start" x="200" y="-130.5" font-family="Helvetica,sans-Serif" font-size="10.00">IPlugProcessor&lt; PLUG</text>
<text text-anchor="middle" x="253.5" y="-119.5" font-family="Helvetica,sans-Serif" font-size="10.00">_SAMPLE_DST &gt;</text>
</a>
</g>
</g>
<!-- Node7&#45;&gt;Node6 -->
<g id="edge6" class="edge"><title>Node7&#45;&gt;Node6</title>
<path fill="none" stroke="midnightblue" d="M253.5,-102.289C253.5,-92.857 253.5,-82.6548 253.5,-75.6578"/>
<polygon fill="midnightblue" stroke="midnightblue" points="250,-102.399 253.5,-112.399 257,-102.399 250,-102.399"/>
</g>
</g>
</svg>
