<?xml version="1.0" encoding="UTF-8" standalone="no"?>
<!DOCTYPE svg PUBLIC "-//W3C//DTD SVG 1.1//EN"
 "http://www.w3.org/Graphics/SVG/1.1/DTD/svg11.dtd">
<!-- Generated by graphviz version 2.38.0 (20140413.2041)
 -->
<!-- Title: IPlugVST3 Pages: 1 -->
<svg width="597pt" height="147pt"
 viewBox="0.00 0.00 597.00 147.00" xmlns="http://www.w3.org/2000/svg" xmlns:xlink="http://www.w3.org/1999/xlink">
<g id="graph0" class="graph" transform="scale(1 1) rotate(0) translate(4 143)">
<title>IPlugVST3</title>
<polygon fill="white" stroke="none" points="-4,4 -4,-143 593,-143 593,4 -4,4"/>
<!-- Node1 -->
<g id="node1" class="node"><title>Node1</title>
<polygon fill="#bfbfbf" stroke="black" points="525,-57.5 525,-76.5 589,-76.5 589,-57.5 525,-57.5"/>
<text text-anchor="middle" x="557" y="-64.5" font-family="Helvetica,sans-Serif" font-size="10.00">IPlugVST3</text>
</g>
<!-- Node2 -->
<g id="node2" class="node"><title>Node2</title>
<g id="a_node2"><a xlink:href="class_i_plug_a_p_i_base.html" target="_top" xlink:title="The base class of an IPlug plug&#45;in, which interacts with the different plug&#45;in APIs. ">
<polygon fill="white" stroke="black" points="374.5,-117.5 374.5,-136.5 452.5,-136.5 452.5,-117.5 374.5,-117.5"/>
<text text-anchor="middle" x="413.5" y="-124.5" font-family="Helvetica,sans-Serif" font-size="10.00">IPlugAPIBase</text>
</a>
</g>
</g>
<!-- Node2&#45;&gt;Node1 -->
<g id="edge1" class="edge"><title>Node2&#45;&gt;Node1</title>
<path fill="none" stroke="midnightblue" d="M462.248,-114.668C471.265,-111.845 480.522,-108.6 489,-105 507.833,-97.0036 528.086,-84.9921 541.336,-76.621"/>
<polygon fill="midnightblue" stroke="midnightblue" points="461.178,-111.335 452.607,-117.563 463.191,-118.039 461.178,-111.335"/>
</g>
<!-- Node3 -->
<g id="node3" class="node"><title>Node3</title>
<g id="a_node3"><a xlink:href="class_i_plugin_base.html" target="_top" xlink:title="Base class that contains plug&#45;in info and state manipulation methods. ">
<polygon fill="white" stroke="black" points="205,-119.5 205,-138.5 276,-138.5 276,-119.5 205,-119.5"/>
<text text-anchor="middle" x="240.5" y="-126.5" font-family="Helvetica,sans-Serif" font-size="10.00">IPluginBase</text>
</a>
</g>
</g>
<!-- Node3&#45;&gt;Node2 -->
<g id="edge2" class="edge"><title>Node3&#45;&gt;Node2</title>
<path fill="none" stroke="midnightblue" d="M286.212,-128.477C313.604,-128.157 348.29,-127.751 374.377,-127.446"/>
<polygon fill="midnightblue" stroke="midnightblue" points="286.063,-124.978 276.104,-128.595 286.145,-131.978 286.063,-124.978"/>
</g>
<!-- Node4 -->
<g id="node4" class="node"><title>Node4</title>
<g id="a_node4"><a xlink:href="class_i_editor_delegate.html" target="_top" xlink:title="This pure virtual interface delegates communication in both directions between a UI editor and someth...">
<polygon fill="white" stroke="black" points="0,-119.5 0,-138.5 143,-138.5 143,-119.5 0,-119.5"/>
<text text-anchor="middle" x="71.5" y="-126.5" font-family="Helvetica,sans-Serif" font-size="10.00">EDITOR_DELEGATE_CLASS</text>
</a>
</g>
</g>
<!-- Node4&#45;&gt;Node3 -->
<g id="edge3" class="edge"><title>Node4&#45;&gt;Node3</title>
<path fill="none" stroke="midnightblue" d="M153.385,-129C171.567,-129 189.914,-129 204.973,-129"/>
<polygon fill="midnightblue" stroke="midnightblue" points="153.323,-125.5 143.323,-129 153.323,-132.5 153.323,-125.5"/>
</g>
<!-- Node5 -->
<g id="node5" class="node"><title>Node5</title>
<g id="a_node5"><a xlink:href="class_i_plug_v_s_t3_processor_base.html" target="_top" xlink:title="Shared VST3 processor code. ">
<polygon fill="white" stroke="black" points="346,-76.5 346,-95.5 481,-95.5 481,-76.5 346,-76.5"/>
<text text-anchor="middle" x="413.5" y="-83.5" font-family="Helvetica,sans-Serif" font-size="10.00">IPlugVST3ProcessorBase</text>
</a>
</g>
</g>
<!-- Node5&#45;&gt;Node1 -->
<g id="edge4" class="edge"><title>Node5&#45;&gt;Node1</title>
<path fill="none" stroke="midnightblue" d="M491.086,-75.7163C502.941,-74.1246 514.575,-72.5624 524.646,-71.2101"/>
<polygon fill="midnightblue" stroke="midnightblue" points="490.552,-72.2566 481.107,-77.0564 491.483,-79.1943 490.552,-72.2566"/>
</g>
<!-- Node6 -->
<g id="node6" class="node"><title>Node6</title>
<g id="a_node6"><a xlink:href="class_i_plug_processor.html" target="_top" xlink:title="IPlugProcessor\&lt; PLUG\l_SAMPLE_DST \&gt;">
<polygon fill="white" stroke="black" points="179,-70 179,-100 302,-100 302,-70 179,-70"/>
<text text-anchor="start" x="187" y="-88" font-family="Helvetica,sans-Serif" font-size="10.00">IPlugProcessor&lt; PLUG</text>
<text text-anchor="middle" x="240.5" y="-77" font-family="Helvetica,sans-Serif" font-size="10.00">_SAMPLE_DST &gt;</text>
</a>
</g>
</g>
<!-- Node6&#45;&gt;Node5 -->
<g id="edge5" class="edge"><title>Node6&#45;&gt;Node5</title>
<path fill="none" stroke="midnightblue" d="M312.332,-85.4142C323.416,-85.479 334.839,-85.5458 345.826,-85.6101"/>
<polygon fill="midnightblue" stroke="midnightblue" points="312.29,-81.914 302.27,-85.3554 312.249,-88.9139 312.29,-81.914"/>
</g>
<!-- Node7 -->
<g id="node7" class="node"><title>Node7</title>
<g id="a_node7"><a xlink:href="class_i_plug_v_s_t3_controller_base.html" target="_top" xlink:title="Shared VST3 controller code. ">
<polygon fill="white" stroke="black" points="346.5,-38.5 346.5,-57.5 480.5,-57.5 480.5,-38.5 346.5,-38.5"/>
<text text-anchor="middle" x="413.5" y="-45.5" font-family="Helvetica,sans-Serif" font-size="10.00">IPlugVST3ControllerBase</text>
</a>
</g>
</g>
<!-- Node7&#45;&gt;Node1 -->
<g id="edge6" class="edge"><title>Node7&#45;&gt;Node1</title>
<path fill="none" stroke="midnightblue" d="M490.805,-58.2459C502.819,-59.8591 514.619,-61.4435 524.806,-62.8114"/>
<polygon fill="midnightblue" stroke="midnightblue" points="491.07,-54.7501 480.693,-56.8881 490.138,-61.6878 491.07,-54.7501"/>
</g>
<!-- Node8 -->
<g id="node8" class="node"><title>Node8</title>
<polygon fill="white" stroke="#bfbfbf" points="338,-0.5 338,-19.5 489,-19.5 489,-0.5 338,-0.5"/>
<text text-anchor="middle" x="413.5" y="-7.5" font-family="Helvetica,sans-Serif" font-size="10.00">Vst::SingleComponentEffect</text>
</g>
<!-- Node8&#45;&gt;Node1 -->
<g id="edge7" class="edge"><title>Node8&#45;&gt;Node1</title>
<path fill="none" stroke="midnightblue" d="M469.67,-22.2997C476.269,-24.2883 482.844,-26.521 489,-29 508.103,-36.6925 528.469,-48.8813 541.665,-57.3731"/>
<polygon fill="midnightblue" stroke="midnightblue" points="470.607,-18.9273 460.031,-19.5605 468.693,-25.6607 470.607,-18.9273"/>
</g>
</g>
</svg>
