<?xml version="1.0" encoding="UTF-8" standalone="no"?>
<!DOCTYPE svg PUBLIC "-//W3C//DTD SVG 1.1//EN"
 "http://www.w3.org/Graphics/SVG/1.1/DTD/svg11.dtd">
<!-- Generated by graphviz version 2.38.0 (20140413.2041)
 -->
<!-- Title: IPlugVST3Controller Pages: 1 -->
<svg width="450pt" height="196pt"
 viewBox="0.00 0.00 450.00 196.00" xmlns="http://www.w3.org/2000/svg" xmlns:xlink="http://www.w3.org/1999/xlink">
<g id="graph0" class="graph" transform="scale(1 1) rotate(0) translate(4 192)">
<title>IPlugVST3Controller</title>
<polygon fill="white" stroke="none" points="-4,4 -4,-192 446,-192 446,4 -4,4"/>
<!-- Node1 -->
<g id="node1" class="node"><title>Node1</title>
<polygon fill="#bfbfbf" stroke="black" points="148,-0.5 148,-19.5 258,-19.5 258,-0.5 148,-0.5"/>
<text text-anchor="middle" x="203" y="-7.5" font-family="Helvetica,sans-Serif" font-size="10.00">IPlugVST3Controller</text>
</g>
<!-- Node2 -->
<g id="node2" class="node"><title>Node2</title>
<polygon fill="white" stroke="#bfbfbf" points="0,-56.5 0,-75.5 98,-75.5 98,-56.5 0,-56.5"/>
<text text-anchor="middle" x="49" y="-63.5" font-family="Helvetica,sans-Serif" font-size="10.00">EditControllerEx1</text>
</g>
<!-- Node2&#45;&gt;Node1 -->
<g id="edge1" class="edge"><title>Node2&#45;&gt;Node1</title>
<path fill="none" stroke="midnightblue" d="M83.1105,-53.0392C112.087,-42.8786 152.962,-28.5457 178.712,-19.5164"/>
<polygon fill="midnightblue" stroke="midnightblue" points="81.6803,-49.8317 73.4018,-56.4435 83.9966,-56.4373 81.6803,-49.8317"/>
</g>
<!-- Node3 -->
<g id="node3" class="node"><title>Node3</title>
<polygon fill="white" stroke="#bfbfbf" points="116,-56.5 116,-75.5 194,-75.5 194,-56.5 116,-56.5"/>
<text text-anchor="middle" x="155" y="-63.5" font-family="Helvetica,sans-Serif" font-size="10.00">IMidiMapping</text>
</g>
<!-- Node3&#45;&gt;Node1 -->
<g id="edge2" class="edge"><title>Node3&#45;&gt;Node1</title>
<path fill="none" stroke="midnightblue" d="M169.728,-48.4314C178.14,-38.9673 188.349,-27.4827 195.221,-19.7511"/>
<polygon fill="midnightblue" stroke="midnightblue" points="166.954,-46.2836 162.926,-56.083 172.186,-50.9342 166.954,-46.2836"/>
</g>
<!-- Node4 -->
<g id="node4" class="node"><title>Node4</title>
<g id="a_node4"><a xlink:href="class_i_plug_a_p_i_base.html" target="_top" xlink:title="The base class of an IPlug plug&#45;in, which interacts with the different plug&#45;in APIs. ">
<polygon fill="white" stroke="black" points="212,-56.5 212,-75.5 290,-75.5 290,-56.5 212,-56.5"/>
<text text-anchor="middle" x="251" y="-63.5" font-family="Helvetica,sans-Serif" font-size="10.00">IPlugAPIBase</text>
</a>
</g>
</g>
<!-- Node4&#45;&gt;Node1 -->
<g id="edge3" class="edge"><title>Node4&#45;&gt;Node1</title>
<path fill="none" stroke="midnightblue" d="M236.272,-48.4314C227.86,-38.9673 217.651,-27.4827 210.779,-19.7511"/>
<polygon fill="midnightblue" stroke="midnightblue" points="233.814,-50.9342 243.074,-56.083 239.046,-46.2836 233.814,-50.9342"/>
</g>
<!-- Node5 -->
<g id="node5" class="node"><title>Node5</title>
<g id="a_node5"><a xlink:href="class_i_plugin_base.html" target="_top" xlink:title="Base class that contains plug&#45;in info and state manipulation methods. ">
<polygon fill="white" stroke="black" points="215.5,-112.5 215.5,-131.5 286.5,-131.5 286.5,-112.5 215.5,-112.5"/>
<text text-anchor="middle" x="251" y="-119.5" font-family="Helvetica,sans-Serif" font-size="10.00">IPluginBase</text>
</a>
</g>
</g>
<!-- Node5&#45;&gt;Node4 -->
<g id="edge4" class="edge"><title>Node5&#45;&gt;Node4</title>
<path fill="none" stroke="midnightblue" d="M251,-101.805C251,-92.9102 251,-82.7798 251,-75.7511"/>
<polygon fill="midnightblue" stroke="midnightblue" points="247.5,-102.083 251,-112.083 254.5,-102.083 247.5,-102.083"/>
</g>
<!-- Node6 -->
<g id="node6" class="node"><title>Node6</title>
<g id="a_node6"><a xlink:href="class_i_editor_delegate.html" target="_top" xlink:title="This pure virtual interface delegates communication in both directions between a UI editor and someth...">
<polygon fill="white" stroke="black" points="179.5,-168.5 179.5,-187.5 322.5,-187.5 322.5,-168.5 179.5,-168.5"/>
<text text-anchor="middle" x="251" y="-175.5" font-family="Helvetica,sans-Serif" font-size="10.00">EDITOR_DELEGATE_CLASS</text>
</a>
</g>
</g>
<!-- Node6&#45;&gt;Node5 -->
<g id="edge5" class="edge"><title>Node6&#45;&gt;Node5</title>
<path fill="none" stroke="midnightblue" d="M251,-157.805C251,-148.91 251,-138.78 251,-131.751"/>
<polygon fill="midnightblue" stroke="midnightblue" points="247.5,-158.083 251,-168.083 254.5,-158.083 247.5,-158.083"/>
</g>
<!-- Node7 -->
<g id="node7" class="node"><title>Node7</title>
<g id="a_node7"><a xlink:href="class_i_plug_v_s_t3_controller_base.html" target="_top" xlink:title="Shared VST3 controller code. ">
<polygon fill="white" stroke="black" points="308,-56.5 308,-75.5 442,-75.5 442,-56.5 308,-56.5"/>
<text text-anchor="middle" x="375" y="-63.5" font-family="Helvetica,sans-Serif" font-size="10.00">IPlugVST3ControllerBase</text>
</a>
</g>
</g>
<!-- Node7&#45;&gt;Node1 -->
<g id="edge6" class="edge"><title>Node7&#45;&gt;Node1</title>
<path fill="none" stroke="midnightblue" d="M338.168,-53.4363C305.738,-43.2551 259.263,-28.664 230.126,-19.5164"/>
<polygon fill="midnightblue" stroke="midnightblue" points="337.157,-56.7874 347.746,-56.4435 339.254,-50.1088 337.157,-56.7874"/>
</g>
</g>
</svg>
