<?xml version="1.0" encoding="UTF-8" standalone="no"?>
<!DOCTYPE svg PUBLIC "-//W3C//DTD SVG 1.1//EN"
 "http://www.w3.org/Graphics/SVG/1.1/DTD/svg11.dtd">
<!-- Generated by graphviz version 2.38.0 (20140413.2041)
 -->
<!-- Title: IControl Pages: 1 -->
<!--zoomable 1446 -->
<svg id="main" version="1.1" xmlns="http://www.w3.org/2000/svg" xmlns:xlink="http://www.w3.org/1999/xlink" xml:space="preserve" onload="init(evt)">
<style type="text/css"><![CDATA[
.edge:hover path { stroke: red; }
.edge:hover polygon { stroke: red; fill: red; }
]]></style>
<script type="text/javascript"><![CDATA[
var edges = document.getElementsByTagName('g');
if (edges && edges.length) {
  for (var i=0;i<edges.length;i++) {
    if (edges[i].id.substr(0,4)=='edge') {
      edges[i].setAttribute('class','edge');
    }
  }
}
]]></script>
        <defs>
                <circle id="rim" cx="0" cy="0" r="7"/>
                <circle id="rim2" cx="0" cy="0" r="3.5"/>
                <g id="zoomPlus">
                        <use xlink:href="#rim" fill="#404040">
                                <set attributeName="fill" to="#808080" begin="zoomplus.mouseover" end="zoomplus.mouseout"/>
                        </use>
                        <path d="M-4,0h8M0,-4v8" fill="none" stroke="white" stroke-width="1.5" pointer-events="none"/>
                </g>
                <g id="zoomMin">
                        <use xlink:href="#rim" fill="#404040">
                                <set attributeName="fill" to="#808080" begin="zoomminus.mouseover" end="zoomminus.mouseout"/>
                        </use>
                        <path d="M-4,0h8" fill="none" stroke="white" stroke-width="1.5" pointer-events="none"/>
                </g>
                <g id="dirArrow">
                        <path fill="none" stroke="white" stroke-width="1.5" d="M0,-3.0v7 M-2.5,-0.5L0,-3.0L2.5,-0.5"/>
                </g>
               <g id="resetDef">
                       <use xlink:href="#rim2" fill="#404040">
                               <set attributeName="fill" to="#808080" begin="reset.mouseover" end="reset.mouseout"/>
                       </use>
               </g>
        </defs>

<script type="text/javascript">
var viewWidth = 400;
var viewHeight = 1446;
var sectionId = 'dynsection-0';
</script>
<script xlink:href="svgpan.js"/>
<svg id="graph" class="graph">
<g id="viewport">
<title>IControl</title>
<polygon fill="white" stroke="none" points="-4,4 -4,-1442 396,-1442 396,4 -4,4"/>
<!-- Node1 -->
<g id="node1" class="node"><title>Node1</title>
<polygon fill="#bfbfbf" stroke="black" points="0,-715.5 0,-734.5 53,-734.5 53,-715.5 0,-715.5"/>
<text text-anchor="middle" x="26.5" y="-722.5" font-family="Helvetica,sans-Serif" font-size="10.00">IControl</text>
</g>
<!-- Node2 -->
<g id="node2" class="node"><title>Node2</title>
<g id="a_node2"><a xlink:href="class_g_f_x_label_control.html" target="_top" xlink:title="Control to display the graphics backend. ">
<polygon fill="white" stroke="black" points="116,-1418.5 116,-1437.5 211,-1437.5 211,-1418.5 116,-1418.5"/>
<text text-anchor="middle" x="163.5" y="-1425.5" font-family="Helvetica,sans-Serif" font-size="10.00">GFXLabelControl</text>
</a>
</g>
</g>
<!-- Node1&#45;&gt;Node2 -->
<g id="edge1" class="edge"><title>Node1&#45;&gt;Node2</title>
<path fill="none" stroke="midnightblue" d="M27.9452,-744.949C30.5134,-852.162 44.8951,-1357.03 89,-1409 95.8228,-1417.04 105.559,-1421.91 115.722,-1424.81"/>
<polygon fill="midnightblue" stroke="midnightblue" points="31.4421,-744.77 27.7106,-734.854 24.4439,-744.933 31.4421,-744.77"/>
</g>
<!-- Node3 -->
<g id="node3" class="node"><title>Node3</title>
<g id="a_node3"><a xlink:href="class_i_bitmap_control.html" target="_top" xlink:title="A basic control to draw a bitmap, or one frame of a stacked bitmap depending on the current value...">
<polygon fill="white" stroke="black" points="119.5,-1380.5 119.5,-1399.5 207.5,-1399.5 207.5,-1380.5 119.5,-1380.5"/>
<text text-anchor="middle" x="163.5" y="-1387.5" font-family="Helvetica,sans-Serif" font-size="10.00">IBitmapControl</text>
</a>
</g>
</g>
<!-- Node1&#45;&gt;Node3 -->
<g id="edge2" class="edge"><title>Node1&#45;&gt;Node3</title>
<path fill="none" stroke="midnightblue" d="M28.0522,-744.802C31.1061,-848.087 47.327,-1322.16 89,-1371 96.6138,-1379.92 107.817,-1384.94 119.194,-1387.68"/>
<polygon fill="midnightblue" stroke="midnightblue" points="31.5504,-744.687 27.7636,-734.792 24.5533,-744.888 31.5504,-744.687"/>
</g>
<!-- Node4 -->
<g id="node4" class="node"><title>Node4</title>
<g id="a_node4"><a xlink:href="class_i_button_control_base.html" target="_top" xlink:title="A base class for buttons/momentary switches &#45; cannot be linked to parameters. ">
<polygon fill="white" stroke="black" points="108.5,-1342.5 108.5,-1361.5 218.5,-1361.5 218.5,-1342.5 108.5,-1342.5"/>
<text text-anchor="middle" x="163.5" y="-1349.5" font-family="Helvetica,sans-Serif" font-size="10.00">IButtonControlBase</text>
</a>
</g>
</g>
<!-- Node1&#45;&gt;Node4 -->
<g id="edge3" class="edge"><title>Node1&#45;&gt;Node4</title>
<path fill="none" stroke="midnightblue" d="M28.1786,-744.865C31.7579,-844.551 49.7832,-1287.31 89,-1333 94.1506,-1339 100.924,-1343.23 108.277,-1346.19"/>
<polygon fill="midnightblue" stroke="midnightblue" points="31.6699,-744.554 27.8209,-734.683 24.6742,-744.8 31.6699,-744.554"/>
</g>
<!-- Node7 -->
<g id="node7" class="node"><title>Node7</title>
<g id="a_node7"><a xlink:href="class_i_color_picker_control.html" target="_top" xlink:title="A control for choosing a color. ">
<polygon fill="white" stroke="black" points="110,-1304.5 110,-1323.5 217,-1323.5 217,-1304.5 110,-1304.5"/>
<text text-anchor="middle" x="163.5" y="-1311.5" font-family="Helvetica,sans-Serif" font-size="10.00">IColorPickerControl</text>
</a>
</g>
</g>
<!-- Node1&#45;&gt;Node7 -->
<g id="edge6" class="edge"><title>Node1&#45;&gt;Node7</title>
<path fill="none" stroke="midnightblue" d="M28.317,-744.806C32.4392,-840.535 52.2189,-1252.44 89,-1295 94.5153,-1301.38 101.867,-1305.76 109.791,-1308.74"/>
<polygon fill="midnightblue" stroke="midnightblue" points="31.8019,-744.37 27.8829,-734.527 24.8081,-744.666 31.8019,-744.37"/>
</g>
<!-- Node8 -->
<g id="node8" class="node"><title>Node8</title>
<g id="a_node8"><a xlink:href="class_i_corner_resizer_control.html" target="_top" xlink:title="A control for resizing the plug&#45;in window by clicking and dragging in the bottom right&#45;hand corner Th...">
<polygon fill="white" stroke="black" points="104,-1266.5 104,-1285.5 223,-1285.5 223,-1266.5 104,-1266.5"/>
<text text-anchor="middle" x="163.5" y="-1273.5" font-family="Helvetica,sans-Serif" font-size="10.00">ICornerResizerControl</text>
</a>
</g>
</g>
<!-- Node1&#45;&gt;Node8 -->
<g id="edge7" class="edge"><title>Node1&#45;&gt;Node8</title>
<path fill="none" stroke="midnightblue" d="M28.4835,-744.924C33.1971,-836.891 54.6722,-1217.58 89,-1257 93.0681,-1261.67 98.1198,-1265.27 103.657,-1268.03"/>
<polygon fill="midnightblue" stroke="midnightblue" points="31.9702,-744.568 27.971,-734.757 24.979,-744.921 31.9702,-744.568"/>
</g>
<!-- Node9 -->
<g id="node9" class="node"><title>Node9</title>
<g id="a_node9"><a xlink:href="class_i_dir_browse_control_base.html" target="_top" xlink:title="An abstract IControl base class that you can inherit from in order to make a control that pops up a m...">
<polygon fill="white" stroke="black" points="101,-1228.5 101,-1247.5 226,-1247.5 226,-1228.5 101,-1228.5"/>
<text text-anchor="middle" x="163.5" y="-1235.5" font-family="Helvetica,sans-Serif" font-size="10.00">IDirBrowseControlBase</text>
</a>
</g>
</g>
<!-- Node1&#45;&gt;Node9 -->
<g id="edge8" class="edge"><title>Node1&#45;&gt;Node9</title>
<path fill="none" stroke="midnightblue" d="M27.1166,-744.95C25.9326,-828.202 25.6667,-1146.91 89,-1219 92.3926,-1222.86 96.4573,-1225.99 100.911,-1228.51"/>
<polygon fill="midnightblue" stroke="midnightblue" points="30.6182,-744.872 27.2832,-734.816 23.6192,-744.757 30.6182,-744.872"/>
</g>
<!-- Node11 -->
<g id="node11" class="node"><title>Node11</title>
<g id="a_node11"><a xlink:href="class_i_f_p_s_display_control.html" target="_top" xlink:title="Performance display meter, based on code from NanoVG This is a special control that lives outside the...">
<polygon fill="white" stroke="black" points="110.5,-1190.5 110.5,-1209.5 216.5,-1209.5 216.5,-1190.5 110.5,-1190.5"/>
<text text-anchor="middle" x="163.5" y="-1197.5" font-family="Helvetica,sans-Serif" font-size="10.00">IFPSDisplayControl</text>
</a>
</g>
</g>
<!-- Node1&#45;&gt;Node11 -->
<g id="edge10" class="edge"><title>Node1&#45;&gt;Node11</title>
<path fill="none" stroke="midnightblue" d="M27.3474,-744.915C27.1544,-824.041 30.4951,-1115.09 89,-1181 94.6871,-1187.41 102.225,-1191.79 110.306,-1194.75"/>
<polygon fill="midnightblue" stroke="midnightblue" points="30.8477,-744.847 27.3954,-734.83 23.8478,-744.813 30.8477,-744.847"/>
</g>
<!-- Node12 -->
<g id="node12" class="node"><title>Node12</title>
<g id="a_node12"><a xlink:href="class_i_graphics_live_edit.html" target="_top" xlink:title="A control to enable live modification of control layout in an IGraphics context in debug builds This ...">
<polygon fill="white" stroke="black" points="114.5,-1152.5 114.5,-1171.5 212.5,-1171.5 212.5,-1152.5 114.5,-1152.5"/>
<text text-anchor="middle" x="163.5" y="-1159.5" font-family="Helvetica,sans-Serif" font-size="10.00">IGraphicsLiveEdit</text>
</a>
</g>
</g>
<!-- Node1&#45;&gt;Node12 -->
<g id="edge11" class="edge"><title>Node1&#45;&gt;Node12</title>
<path fill="none" stroke="midnightblue" d="M27.6212,-745.138C28.4888,-820.319 35.371,-1083.31 89,-1143 95.6063,-1150.35 104.65,-1155.03 114.137,-1157.96"/>
<polygon fill="midnightblue" stroke="midnightblue" points="31.1176,-744.712 27.5273,-734.744 24.1179,-744.775 31.1176,-744.712"/>
</g>
<!-- Node13 -->
<g id="node13" class="node"><title>Node13</title>
<g id="a_node13"><a xlink:href="class_i_knob_control_base.html" target="_top" xlink:title="A base class for knob/dial controls, to handle mouse action and Sender. ">
<polygon fill="white" stroke="red" points="113,-1114.5 113,-1133.5 214,-1133.5 214,-1114.5 113,-1114.5"/>
<text text-anchor="middle" x="163.5" y="-1121.5" font-family="Helvetica,sans-Serif" font-size="10.00">IKnobControlBase</text>
</a>
</g>
</g>
<!-- Node1&#45;&gt;Node13 -->
<g id="edge12" class="edge"><title>Node1&#45;&gt;Node13</title>
<path fill="none" stroke="midnightblue" d="M27.9353,-744.653C29.8904,-814.77 40.0631,-1051.31 89,-1105 95.3039,-1111.92 103.765,-1116.46 112.701,-1119.41"/>
<polygon fill="midnightblue" stroke="midnightblue" points="31.4316,-744.459 27.6798,-734.551 24.4338,-744.636 31.4316,-744.459"/>
</g>
<!-- Node21 -->
<g id="node21" class="node"><title>Node21</title>
<g id="a_node21"><a xlink:href="class_i_lambda_control.html" target="_top" xlink:title="A control that can be specialised with a lambda function, for quick experiments without making a cust...">
<polygon fill="white" stroke="black" points="117.5,-1076.5 117.5,-1095.5 209.5,-1095.5 209.5,-1076.5 117.5,-1076.5"/>
<text text-anchor="middle" x="163.5" y="-1083.5" font-family="Helvetica,sans-Serif" font-size="10.00">ILambdaControl</text>
</a>
</g>
</g>
<!-- Node1&#45;&gt;Node21 -->
<g id="edge20" class="edge"><title>Node1&#45;&gt;Node21</title>
<path fill="none" stroke="midnightblue" d="M28.3295,-744.77C31.4837,-810.378 44.8776,-1019.44 89,-1067 96.4396,-1075.02 106.781,-1079.84 117.361,-1082.68"/>
<polygon fill="midnightblue" stroke="midnightblue" points="31.8165,-744.401 27.8676,-734.569 24.8236,-744.718 31.8165,-744.401"/>
</g>
<!-- Node22 -->
<g id="node22" class="node"><title>Node22</title>
<g id="a_node22"><a xlink:href="class_i_panel_control.html" target="_top" xlink:title="A basic control to fill a rectangle with a color or gradient. ">
<polygon fill="white" stroke="black" points="124,-1038.5 124,-1057.5 203,-1057.5 203,-1038.5 124,-1038.5"/>
<text text-anchor="middle" x="163.5" y="-1045.5" font-family="Helvetica,sans-Serif" font-size="10.00">IPanelControl</text>
</a>
</g>
</g>
<!-- Node1&#45;&gt;Node22 -->
<g id="edge21" class="edge"><title>Node1&#45;&gt;Node22</title>
<path fill="none" stroke="midnightblue" d="M28.8257,-744.911C33.2762,-805.739 49.6723,-987.516 89,-1029 98.0677,-1038.56 111.266,-1043.56 123.985,-1046.09"/>
<polygon fill="midnightblue" stroke="midnightblue" points="32.3026,-744.457 28.1111,-734.727 25.3197,-744.947 32.3026,-744.457"/>
</g>
<!-- Node23 -->
<g id="node23" class="node"><title>Node23</title>
<g id="a_node23"><a xlink:href="class_i_popup_menu_control.html" target="_top" xlink:title="A base control for a pop&#45;up menu/drop&#45;down list that stays within the bounds of the IGraphics context...">
<polygon fill="white" stroke="black" points="108.5,-1000.5 108.5,-1019.5 218.5,-1019.5 218.5,-1000.5 108.5,-1000.5"/>
<text text-anchor="middle" x="163.5" y="-1007.5" font-family="Helvetica,sans-Serif" font-size="10.00">IPopupMenuControl</text>
</a>
</g>
</g>
<!-- Node1&#45;&gt;Node23 -->
<g id="edge22" class="edge"><title>Node1&#45;&gt;Node23</title>
<path fill="none" stroke="midnightblue" d="M29.4515,-744.919C35.2924,-800.496 54.409,-955.506 89,-991 94.3353,-996.475 101.026,-1000.44 108.184,-1003.31"/>
<polygon fill="midnightblue" stroke="midnightblue" points="32.9007,-744.242 28.4058,-734.648 25.9367,-744.951 32.9007,-744.242"/>
</g>
<!-- Node24 -->
<g id="node24" class="node"><title>Node24</title>
<g id="a_node24"><a xlink:href="class_i_slider_control_base.html" target="_top" xlink:title="A base class for slider/fader controls, to handle mouse action and Sender. ">
<polygon fill="white" stroke="red" points="111.5,-962.5 111.5,-981.5 215.5,-981.5 215.5,-962.5 111.5,-962.5"/>
<text text-anchor="middle" x="163.5" y="-969.5" font-family="Helvetica,sans-Serif" font-size="10.00">ISliderControlBase</text>
</a>
</g>
</g>
<!-- Node1&#45;&gt;Node24 -->
<g id="edge23" class="edge"><title>Node1&#45;&gt;Node24</title>
<path fill="none" stroke="midnightblue" d="M26.6703,-744.927C25.9824,-789.009 30.8262,-895.434 89,-953 95.1831,-959.119 103.063,-963.345 111.355,-966.249"/>
<polygon fill="midnightblue" stroke="midnightblue" points="30.1695,-744.997 26.9441,-734.905 23.1722,-744.806 30.1695,-744.997"/>
</g>
<!-- Node25 -->
<g id="node25" class="node"><title>Node25</title>
<g id="a_node25"><a xlink:href="class_i_s_v_g_control.html" target="_top" xlink:title="A basic control to draw an SVG image to the screen. ">
<polygon fill="white" stroke="black" points="126.5,-924.5 126.5,-943.5 200.5,-943.5 200.5,-924.5 126.5,-924.5"/>
<text text-anchor="middle" x="163.5" y="-931.5" font-family="Helvetica,sans-Serif" font-size="10.00">ISVGControl</text>
</a>
</g>
</g>
<!-- Node1&#45;&gt;Node25 -->
<g id="edge24" class="edge"><title>Node1&#45;&gt;Node25</title>
<path fill="none" stroke="midnightblue" d="M27.9598,-744.959C29.9693,-783.607 40.0475,-868.903 89,-915 99.075,-924.487 113.25,-929.388 126.467,-931.869"/>
<polygon fill="midnightblue" stroke="midnightblue" points="31.4417,-744.416 27.5611,-734.557 24.4468,-744.684 31.4417,-744.416"/>
</g>
<!-- Node26 -->
<g id="node26" class="node"><title>Node26</title>
<g id="a_node26"><a xlink:href="class_i_switch_control_base.html" target="_top" xlink:title="A base class for switch controls. ">
<polygon fill="white" stroke="red" points="109.5,-886.5 109.5,-905.5 217.5,-905.5 217.5,-886.5 109.5,-886.5"/>
<text text-anchor="middle" x="163.5" y="-893.5" font-family="Helvetica,sans-Serif" font-size="10.00">ISwitchControlBase</text>
</a>
</g>
</g>
<!-- Node1&#45;&gt;Node26 -->
<g id="edge25" class="edge"><title>Node1&#45;&gt;Node26</title>
<path fill="none" stroke="midnightblue" d="M29.7733,-744.55C34.6105,-777.011 48.9756,-841.921 89,-877 94.848,-882.125 101.904,-885.897 109.302,-888.668"/>
<polygon fill="midnightblue" stroke="midnightblue" points="33.2273,-743.972 28.4333,-734.524 26.2889,-744.899 33.2273,-743.972"/>
</g>
<!-- Node27 -->
<g id="node27" class="node"><title>Node27</title>
<g id="a_node27"><a xlink:href="class_i_text_control.html" target="_top" xlink:title="A basic control to display some text. ">
<polygon fill="white" stroke="red" points="127.5,-848.5 127.5,-867.5 199.5,-867.5 199.5,-848.5 127.5,-848.5"/>
<text text-anchor="middle" x="163.5" y="-855.5" font-family="Helvetica,sans-Serif" font-size="10.00">ITextControl</text>
</a>
</g>
</g>
<!-- Node1&#45;&gt;Node27 -->
<g id="edge26" class="edge"><title>Node1&#45;&gt;Node27</title>
<path fill="none" stroke="midnightblue" d="M32.6526,-744.344C40.4832,-769.926 57.8651,-814.61 89,-839 99.8942,-847.534 114.216,-852.264 127.322,-854.875"/>
<polygon fill="midnightblue" stroke="midnightblue" points="35.9965,-743.308 29.8691,-734.665 29.2692,-745.243 35.9965,-743.308"/>
</g>
<!-- Node28 -->
<g id="node28" class="node"><title>Node28</title>
<g id="a_node28"><a xlink:href="class_i_text_entry_control.html" target="_top" xlink:title="A Text entry widget drawn by IGraphics. ">
<polygon fill="white" stroke="black" points="115,-810.5 115,-829.5 212,-829.5 212,-810.5 115,-810.5"/>
<text text-anchor="middle" x="163.5" y="-817.5" font-family="Helvetica,sans-Serif" font-size="10.00">ITextEntryControl</text>
</a>
</g>
</g>
<!-- Node1&#45;&gt;Node28 -->
<g id="edge27" class="edge"><title>Node1&#45;&gt;Node28</title>
<path fill="none" stroke="midnightblue" d="M37.597,-743.299C48.1627,-760.738 66.3577,-786.432 89,-801 96.7588,-805.992 105.77,-809.674 114.768,-812.39"/>
<polygon fill="midnightblue" stroke="midnightblue" points="40.5827,-741.471 32.5322,-734.584 34.5304,-744.988 40.5827,-741.471"/>
</g>
<!-- Node29 -->
<g id="node29" class="node"><title>Node29</title>
<g id="a_node29"><a xlink:href="class_i_v_display_control.html" target="_top" xlink:title="IVDisplayControl">
<polygon fill="white" stroke="black" points="116,-772.5 116,-791.5 211,-791.5 211,-772.5 116,-772.5"/>
<text text-anchor="middle" x="163.5" y="-779.5" font-family="Helvetica,sans-Serif" font-size="10.00">IVDisplayControl</text>
</a>
</g>
</g>
<!-- Node1&#45;&gt;Node29 -->
<g id="edge28" class="edge"><title>Node1&#45;&gt;Node29</title>
<path fill="none" stroke="midnightblue" d="M48.9706,-740.488C60.4045,-748.151 74.9719,-757.016 89,-763 97.7285,-766.723 107.361,-769.855 116.699,-772.434"/>
<polygon fill="midnightblue" stroke="midnightblue" points="50.7626,-737.472 40.5427,-734.679 46.7897,-743.236 50.7626,-737.472"/>
</g>
<!-- Node30 -->
<g id="node30" class="node"><title>Node30</title>
<g id="a_node30"><a xlink:href="class_i_v_keyboard_control.html" target="_top" xlink:title="Vectorial keyboard control. ">
<polygon fill="white" stroke="black" points="111.5,-734.5 111.5,-753.5 215.5,-753.5 215.5,-734.5 111.5,-734.5"/>
<text text-anchor="middle" x="163.5" y="-741.5" font-family="Helvetica,sans-Serif" font-size="10.00">IVKeyboardControl</text>
</a>
</g>
</g>
<!-- Node1&#45;&gt;Node30 -->
<g id="edge29" class="edge"><title>Node1&#45;&gt;Node30</title>
<path fill="none" stroke="midnightblue" d="M63.4165,-730.055C78.1378,-732.127 95.4467,-734.563 111.443,-736.814"/>
<polygon fill="midnightblue" stroke="midnightblue" points="63.6005,-726.546 53.2102,-728.618 62.6248,-733.478 63.6005,-726.546"/>
</g>
<!-- Node31 -->
<g id="node31" class="node"><title>Node31</title>
<g id="a_node31"><a xlink:href="class_i_v_plot_control.html" target="_top" xlink:title="IVPlotControl">
<polygon fill="white" stroke="black" points="124.5,-696.5 124.5,-715.5 202.5,-715.5 202.5,-696.5 124.5,-696.5"/>
<text text-anchor="middle" x="163.5" y="-703.5" font-family="Helvetica,sans-Serif" font-size="10.00">IVPlotControl</text>
</a>
</g>
</g>
<!-- Node1&#45;&gt;Node31 -->
<g id="edge30" class="edge"><title>Node1&#45;&gt;Node31</title>
<path fill="none" stroke="midnightblue" d="M63.1874,-719.977C82.0348,-717.325 105.173,-714.068 124.372,-711.366"/>
<polygon fill="midnightblue" stroke="midnightblue" points="62.6248,-716.522 53.2102,-721.382 63.6005,-723.454 62.6248,-716.522"/>
</g>
<!-- Node32 -->
<g id="node32" class="node"><title>Node32</title>
<g id="a_node32"><a xlink:href="class_i_v_scope_control.html" target="_top" xlink:title="Vectorial multichannel capable oscilloscope control. ">
<polygon fill="white" stroke="black" points="93.5,-647 93.5,-677 233.5,-677 233.5,-647 93.5,-647"/>
<text text-anchor="start" x="101.5" y="-665" font-family="Helvetica,sans-Serif" font-size="10.00">IVScopeControl&lt; MAXNC,</text>
<text text-anchor="middle" x="163.5" y="-654" font-family="Helvetica,sans-Serif" font-size="10.00"> MAXBUF, QUEUE_SIZE &gt;</text>
</a>
</g>
</g>
<!-- Node1&#45;&gt;Node32 -->
<g id="edge31" class="edge"><title>Node1&#45;&gt;Node32</title>
<path fill="none" stroke="midnightblue" d="M49.6133,-709.649C61.0282,-702.166 75.3849,-693.421 89,-687 96.6802,-683.378 105.032,-680.025 113.259,-677.027"/>
<polygon fill="midnightblue" stroke="midnightblue" points="47.521,-706.837 41.1598,-715.31 51.4162,-712.653 47.521,-706.837"/>
</g>
<!-- Node33 -->
<g id="node33" class="node"><title>Node33</title>
<g id="a_node33"><a xlink:href="class_i_v_track_control_base.html" target="_top" xlink:title="A base class for mult&#45;strip/track controls, such as multi&#45;sliders, meters. ">
<polygon fill="white" stroke="red" points="109.5,-608.5 109.5,-627.5 217.5,-627.5 217.5,-608.5 109.5,-608.5"/>
<text text-anchor="middle" x="163.5" y="-615.5" font-family="Helvetica,sans-Serif" font-size="10.00">IVTrackControlBase</text>
</a>
</g>
</g>
<!-- Node1&#45;&gt;Node33 -->
<g id="edge32" class="edge"><title>Node1&#45;&gt;Node33</title>
<path fill="none" stroke="midnightblue" d="M36.0805,-705.924C46.0078,-686.018 64.2216,-655.339 89,-638 95.176,-633.678 102.246,-630.29 109.505,-627.633"/>
<polygon fill="midnightblue" stroke="midnightblue" points="32.7914,-704.69 31.6536,-715.224 39.1119,-707.699 32.7914,-704.69"/>
</g>
<!-- Node34 -->
<g id="node34" class="node"><title>Node34</title>
<g id="a_node34"><a xlink:href="class_i_v_x_y_pad_control.html" target="_top" xlink:title="IVXYPadControl">
<polygon fill="white" stroke="black" points="119,-570.5 119,-589.5 208,-589.5 208,-570.5 119,-570.5"/>
<text text-anchor="middle" x="163.5" y="-577.5" font-family="Helvetica,sans-Serif" font-size="10.00">IVXYPadControl</text>
</a>
</g>
</g>
<!-- Node1&#45;&gt;Node34 -->
<g id="edge33" class="edge"><title>Node1&#45;&gt;Node34</title>
<path fill="none" stroke="midnightblue" d="M31.5591,-705.65C38.4288,-677.802 55.0468,-626.73 89,-599 97.4727,-592.08 108.178,-587.65 118.776,-584.823"/>
<polygon fill="midnightblue" stroke="midnightblue" points="28.1463,-704.874 29.321,-715.404 34.969,-706.44 28.1463,-704.874"/>
</g>
<!-- Node35 -->
<g id="node35" class="node"><title>Node35</title>
<g id="a_node35"><a xlink:href="class_test_animation_control.html" target="_top" xlink:title="Control to test animation. ">
<polygon fill="white" stroke="black" points="104,-532.5 104,-551.5 223,-551.5 223,-532.5 104,-532.5"/>
<text text-anchor="middle" x="163.5" y="-539.5" font-family="Helvetica,sans-Serif" font-size="10.00">TestAnimationControl</text>
</a>
</g>
</g>
<!-- Node1&#45;&gt;Node35 -->
<g id="edge34" class="edge"><title>Node1&#45;&gt;Node35</title>
<path fill="none" stroke="midnightblue" d="M29.1726,-704.897C33.1578,-670.26 46.3435,-599.366 89,-561 93.3117,-557.122 98.3125,-554.016 103.638,-551.531"/>
<polygon fill="midnightblue" stroke="midnightblue" points="25.6594,-704.855 28.1445,-715.154 32.6245,-705.553 25.6594,-704.855"/>
</g>
<!-- Node36 -->
<g id="node36" class="node"><title>Node36</title>
<g id="a_node36"><a xlink:href="class_test_bezier_control.html" target="_top" xlink:title="Control to test drawing bezier curves. ">
<polygon fill="white" stroke="black" points="113.5,-494.5 113.5,-513.5 213.5,-513.5 213.5,-494.5 113.5,-494.5"/>
<text text-anchor="middle" x="163.5" y="-501.5" font-family="Helvetica,sans-Serif" font-size="10.00">TestBezierControl</text>
</a>
</g>
</g>
<!-- Node1&#45;&gt;Node36 -->
<g id="edge35" class="edge"><title>Node1&#45;&gt;Node36</title>
<path fill="none" stroke="midnightblue" d="M27.5006,-705.169C28.6238,-664.809 37.0962,-572.74 89,-523 95.7562,-516.525 104.418,-512.181 113.41,-509.283"/>
<polygon fill="midnightblue" stroke="midnightblue" points="23.9989,-705.261 27.3483,-715.312 30.9981,-705.366 23.9989,-705.261"/>
</g>
<!-- Node37 -->
<g id="node37" class="node"><title>Node37</title>
<g id="a_node37"><a xlink:href="class_test_color_control.html" target="_top" xlink:title="Control to colors. ">
<polygon fill="white" stroke="black" points="116,-456.5 116,-475.5 211,-475.5 211,-456.5 116,-456.5"/>
<text text-anchor="middle" x="163.5" y="-463.5" font-family="Helvetica,sans-Serif" font-size="10.00">TestColorControl</text>
</a>
</g>
</g>
<!-- Node1&#45;&gt;Node37 -->
<g id="edge36" class="edge"><title>Node1&#45;&gt;Node37</title>
<path fill="none" stroke="midnightblue" d="M29.955,-705.343C36.781,-653.789 57.576,-516.49 89,-485 96.2616,-477.723 105.921,-473.117 115.844,-470.229"/>
<polygon fill="midnightblue" stroke="midnightblue" points="26.4548,-705.121 28.6474,-715.486 33.3973,-706.016 26.4548,-705.121"/>
</g>
<!-- Node38 -->
<g id="node38" class="node"><title>Node38</title>
<g id="a_node38"><a xlink:href="class_test_cursor_control.html" target="_top" xlink:title="Control to test changing the platform cursor. ">
<polygon fill="white" stroke="black" points="113,-418.5 113,-437.5 214,-437.5 214,-418.5 113,-418.5"/>
<text text-anchor="middle" x="163.5" y="-425.5" font-family="Helvetica,sans-Serif" font-size="10.00">TestCursorControl</text>
</a>
</g>
</g>
<!-- Node1&#45;&gt;Node38 -->
<g id="edge37" class="edge"><title>Node1&#45;&gt;Node38</title>
<path fill="none" stroke="midnightblue" d="M29.2494,-704.94C34.6559,-647.536 52.9468,-484.347 89,-447 95.4077,-440.362 103.807,-435.934 112.629,-433.003"/>
<polygon fill="midnightblue" stroke="midnightblue" points="25.7345,-704.946 28.3139,-715.222 32.7057,-705.58 25.7345,-704.946"/>
</g>
<!-- Node39 -->
<g id="node39" class="node"><title>Node39</title>
<g id="a_node39"><a xlink:href="class_test_draw_context_control.html" target="_top" xlink:title="Control to test obtaining a drawing API (NanoVG, LICE, Cairo, AGG etc) context and using that API wit...">
<polygon fill="white" stroke="black" points="98,-380.5 98,-399.5 229,-399.5 229,-380.5 98,-380.5"/>
<text text-anchor="middle" x="163.5" y="-387.5" font-family="Helvetica,sans-Serif" font-size="10.00">TestDrawContextControl</text>
</a>
</g>
</g>
<!-- Node1&#45;&gt;Node39 -->
<g id="edge38" class="edge"><title>Node1&#45;&gt;Node39</title>
<path fill="none" stroke="midnightblue" d="M28.6569,-705.119C32.6884,-642.729 48.1645,-452.395 89,-409 92.6129,-405.161 96.8912,-402.057 101.539,-399.554"/>
<polygon fill="midnightblue" stroke="midnightblue" points="25.1565,-705.018 28.0337,-715.215 32.1432,-705.45 25.1565,-705.018"/>
</g>
<!-- Node40 -->
<g id="node40" class="node"><title>Node40</title>
<g id="a_node40"><a xlink:href="class_test_drop_shadow_control.html" target="_top" xlink:title="Control to test layer drop shadows. ">
<polygon fill="white" stroke="black" points="98,-342.5 98,-361.5 229,-361.5 229,-342.5 98,-342.5"/>
<text text-anchor="middle" x="163.5" y="-349.5" font-family="Helvetica,sans-Serif" font-size="10.00">TestDropShadowControl</text>
</a>
</g>
</g>
<!-- Node1&#45;&gt;Node40 -->
<g id="edge39" class="edge"><title>Node1&#45;&gt;Node40</title>
<path fill="none" stroke="midnightblue" d="M28.19,-705.404C30.9448,-638.502 43.3286,-420.527 89,-371 92.4846,-367.221 96.6133,-364.153 101.109,-361.666"/>
<polygon fill="midnightblue" stroke="midnightblue" points="24.6912,-705.309 27.804,-715.436 31.686,-705.578 24.6912,-705.309"/>
</g>
<!-- Node41 -->
<g id="node41" class="node"><title>Node41</title>
<g id="a_node41"><a xlink:href="class_test_font_control.html" target="_top" xlink:title="Control to test drawing fonts. ">
<polygon fill="white" stroke="black" points="118,-304.5 118,-323.5 209,-323.5 209,-304.5 118,-304.5"/>
<text text-anchor="middle" x="163.5" y="-311.5" font-family="Helvetica,sans-Serif" font-size="10.00">TestFontControl</text>
</a>
</g>
</g>
<!-- Node1&#45;&gt;Node41 -->
<g id="edge40" class="edge"><title>Node1&#45;&gt;Node41</title>
<path fill="none" stroke="midnightblue" d="M27.8416,-704.732C29.4764,-632.419 38.6904,-388.462 89,-333 96.4383,-324.8 106.909,-319.936 117.62,-317.101"/>
<polygon fill="midnightblue" stroke="midnightblue" points="24.334,-705.082 27.6333,-715.15 31.3326,-705.222 24.334,-705.082"/>
</g>
<!-- Node42 -->
<g id="node42" class="node"><title>Node42</title>
<g id="a_node42"><a xlink:href="class_test_g_l_control.html" target="_top" xlink:title="TestGLControl">
<polygon fill="white" stroke="black" points="122,-266.5 122,-285.5 205,-285.5 205,-266.5 122,-266.5"/>
<text text-anchor="middle" x="163.5" y="-273.5" font-family="Helvetica,sans-Serif" font-size="10.00">TestGLControl</text>
</a>
</g>
</g>
<!-- Node1&#45;&gt;Node42 -->
<g id="edge41" class="edge"><title>Node1&#45;&gt;Node42</title>
<path fill="none" stroke="midnightblue" d="M27.5267,-705.26C28.0375,-629.259 33.7543,-356.74 89,-295 97.3493,-285.669 109.624,-280.647 121.76,-278.021"/>
<polygon fill="midnightblue" stroke="midnightblue" points="24.0265,-705.341 27.4832,-715.356 31.0264,-705.371 24.0265,-705.341"/>
</g>
<!-- Node43 -->
<g id="node43" class="node"><title>Node43</title>
<g id="a_node43"><a xlink:href="class_test_image_control.html" target="_top" xlink:title="Control to test drawing bitmaps. ">
<polygon fill="white" stroke="black" points="113.5,-228.5 113.5,-247.5 213.5,-247.5 213.5,-228.5 113.5,-228.5"/>
<text text-anchor="middle" x="163.5" y="-235.5" font-family="Helvetica,sans-Serif" font-size="10.00">TestImageControl</text>
</a>
</g>
</g>
<!-- Node1&#45;&gt;Node43 -->
<g id="edge42" class="edge"><title>Node1&#45;&gt;Node43</title>
<path fill="none" stroke="midnightblue" d="M27.2708,-705.088C26.7587,-624.664 28.9682,-324.863 89,-257 95.3748,-249.794 104.091,-245.152 113.294,-242.199"/>
<polygon fill="midnightblue" stroke="midnightblue" points="23.7727,-705.34 27.3595,-715.309 30.7725,-705.279 23.7727,-705.34"/>
</g>
<!-- Node44 -->
<g id="node44" class="node"><title>Node44</title>
<g id="a_node44"><a xlink:href="class_test_keyboard_control.html" target="_top" xlink:title="Control to test keyboard input. ">
<polygon fill="white" stroke="black" points="106.5,-190.5 106.5,-209.5 220.5,-209.5 220.5,-190.5 106.5,-190.5"/>
<text text-anchor="middle" x="163.5" y="-197.5" font-family="Helvetica,sans-Serif" font-size="10.00">TestKeyboardControl</text>
</a>
</g>
</g>
<!-- Node1&#45;&gt;Node44 -->
<g id="edge43" class="edge"><title>Node1&#45;&gt;Node44</title>
<path fill="none" stroke="midnightblue" d="M27.0519,-705.115C25.5651,-620.714 24.1196,-293.065 89,-219 93.6897,-213.646 99.6712,-209.706 106.191,-206.821"/>
<polygon fill="midnightblue" stroke="midnightblue" points="23.5573,-705.43 27.255,-715.359 30.556,-705.291 23.5573,-705.43"/>
</g>
<!-- Node45 -->
<g id="node45" class="node"><title>Node45</title>
<g id="a_node45"><a xlink:href="class_test_m_p_s_control.html" target="_top" xlink:title="TestMPSControl">
<polygon fill="white" stroke="black" points="118,-152.5 118,-171.5 209,-171.5 209,-152.5 118,-152.5"/>
<text text-anchor="middle" x="163.5" y="-159.5" font-family="Helvetica,sans-Serif" font-size="10.00">TestMPSControl</text>
</a>
</g>
</g>
<!-- Node1&#45;&gt;Node45 -->
<g id="edge44" class="edge"><title>Node1&#45;&gt;Node45</title>
<path fill="none" stroke="midnightblue" d="M28.4229,-705.226C32.9345,-612.255 53.884,-221.428 89,-181 96.3465,-172.542 106.917,-167.606 117.762,-164.786"/>
<polygon fill="midnightblue" stroke="midnightblue" points="24.9148,-705.314 27.9344,-715.47 31.9069,-705.648 24.9148,-705.314"/>
</g>
<!-- Node46 -->
<g id="node46" class="node"><title>Node46</title>
<g id="a_node46"><a xlink:href="class_test_shadow_gradient_control.html" target="_top" xlink:title="Control to test drawing shadows with gradients. ">
<polygon fill="white" stroke="black" points="89,-114.5 89,-133.5 238,-133.5 238,-114.5 89,-114.5"/>
<text text-anchor="middle" x="163.5" y="-121.5" font-family="Helvetica,sans-Serif" font-size="10.00">TestShadowGradientControl</text>
</a>
</g>
</g>
<!-- Node1&#45;&gt;Node46 -->
<g id="edge45" class="edge"><title>Node1&#45;&gt;Node46</title>
<path fill="none" stroke="midnightblue" d="M28.2755,-705.076C32.2323,-607.896 51.463,-186.534 89,-143 92.2705,-139.207 96.1896,-136.121 100.493,-133.617"/>
<polygon fill="midnightblue" stroke="midnightblue" points="24.7702,-705.141 27.8685,-715.273 31.7646,-705.421 24.7702,-705.141"/>
</g>
<!-- Node47 -->
<g id="node47" class="node"><title>Node47</title>
<g id="a_node47"><a xlink:href="class_test_size_control.html" target="_top" xlink:title="Control to display the size of a region. ">
<polygon fill="white" stroke="black" points="118.5,-76.5 118.5,-95.5 208.5,-95.5 208.5,-76.5 118.5,-76.5"/>
<text text-anchor="middle" x="163.5" y="-83.5" font-family="Helvetica,sans-Serif" font-size="10.00">TestSizeControl</text>
</a>
</g>
</g>
<!-- Node1&#45;&gt;Node47 -->
<g id="edge46" class="edge"><title>Node1&#45;&gt;Node47</title>
<path fill="none" stroke="midnightblue" d="M28.1404,-705.053C31.5592,-604.013 49.0215,-151.668 89,-105 96.4599,-96.2919 107.338,-91.3082 118.45,-88.5233"/>
<polygon fill="midnightblue" stroke="midnightblue" points="24.6398,-705.016 27.8072,-715.126 31.636,-705.247 24.6398,-705.016"/>
</g>
<!-- Node48 -->
<g id="node48" class="node"><title>Node48</title>
<g id="a_node48"><a xlink:href="class_test_s_v_g_control.html" target="_top" xlink:title="Control to test drawing SVGs. ">
<polygon fill="white" stroke="black" points="118,-38.5 118,-57.5 209,-57.5 209,-38.5 118,-38.5"/>
<text text-anchor="middle" x="163.5" y="-45.5" font-family="Helvetica,sans-Serif" font-size="10.00">TestSVGControl</text>
</a>
</g>
</g>
<!-- Node1&#45;&gt;Node48 -->
<g id="edge47" class="edge"><title>Node1&#45;&gt;Node48</title>
<path fill="none" stroke="midnightblue" d="M28.0261,-704.831C30.9474,-599.632 46.6026,-116.777 89,-67 96.2642,-58.4715 106.808,-53.5118 117.652,-50.6912"/>
<polygon fill="midnightblue" stroke="midnightblue" points="24.522,-704.936 27.7505,-715.027 31.5195,-705.125 24.522,-704.936"/>
</g>
<!-- Node49 -->
<g id="node49" class="node"><title>Node49</title>
<g id="a_node49"><a xlink:href="class_test_text_control.html" target="_top" xlink:title="Control to test drawing text. ">
<polygon fill="white" stroke="black" points="119,-0.5 119,-19.5 208,-19.5 208,-0.5 119,-0.5"/>
<text text-anchor="middle" x="163.5" y="-7.5" font-family="Helvetica,sans-Serif" font-size="10.00">TestTextControl</text>
</a>
</g>
</g>
<!-- Node1&#45;&gt;Node49 -->
<g id="edge48" class="edge"><title>Node1&#45;&gt;Node49</title>
<path fill="none" stroke="midnightblue" d="M27.905,-705.387C30.3,-597.782 44.0736,-82.0169 89,-29 96.4982,-20.1515 107.527,-15.1412 118.772,-12.3759"/>
<polygon fill="midnightblue" stroke="midnightblue" points="24.4038,-705.409 27.6876,-715.482 31.4022,-705.56 24.4038,-705.409"/>
</g>
<!-- Node5 -->
<g id="node5" class="node"><title>Node5</title>
<g id="a_node5"><a xlink:href="class_i_b_button_control.html" target="_top" xlink:title="A bitmap button/momentary switch control. ">
<polygon fill="white" stroke="black" points="287,-1361.5 287,-1380.5 379,-1380.5 379,-1361.5 287,-1361.5"/>
<text text-anchor="middle" x="333" y="-1368.5" font-family="Helvetica,sans-Serif" font-size="10.00">IBButtonControl</text>
</a>
</g>
</g>
<!-- Node4&#45;&gt;Node5 -->
<g id="edge4" class="edge"><title>Node4&#45;&gt;Node5</title>
<path fill="none" stroke="midnightblue" d="M228.847,-1359.3C248.202,-1361.49 269.02,-1363.86 286.85,-1365.88"/>
<polygon fill="midnightblue" stroke="midnightblue" points="229.213,-1355.82 218.882,-1358.17 228.424,-1362.77 229.213,-1355.82"/>
</g>
<!-- Node6 -->
<g id="node6" class="node"><title>Node6</title>
<g id="a_node6"><a xlink:href="class_i_v_button_control.html" target="_top" xlink:title="A vector button/momentary switch control. ">
<polygon fill="white" stroke="black" points="287,-1323.5 287,-1342.5 379,-1342.5 379,-1323.5 287,-1323.5"/>
<text text-anchor="middle" x="333" y="-1330.5" font-family="Helvetica,sans-Serif" font-size="10.00">IVButtonControl</text>
</a>
</g>
</g>
<!-- Node4&#45;&gt;Node6 -->
<g id="edge5" class="edge"><title>Node4&#45;&gt;Node6</title>
<path fill="none" stroke="midnightblue" d="M228.847,-1344.7C248.202,-1342.51 269.02,-1340.14 286.85,-1338.12"/>
<polygon fill="midnightblue" stroke="midnightblue" points="228.424,-1341.23 218.882,-1345.83 229.213,-1348.18 228.424,-1341.23"/>
</g>
<!-- Node10 -->
<g id="node10" class="node"><title>Node10</title>
<g id="a_node10"><a xlink:href="class_test_dir_browse_control.html" target="_top" xlink:title="Control to test IDirBrowseControlBase. ">
<polygon fill="white" stroke="black" points="274,-1247.5 274,-1266.5 392,-1266.5 392,-1247.5 274,-1247.5"/>
<text text-anchor="middle" x="333" y="-1254.5" font-family="Helvetica,sans-Serif" font-size="10.00">TestDirBrowseControl</text>
</a>
</g>
</g>
<!-- Node9&#45;&gt;Node10 -->
<g id="edge9" class="edge"><title>Node9&#45;&gt;Node10</title>
<path fill="none" stroke="midnightblue" d="M236.366,-1246.15C248.924,-1247.58 261.845,-1249.04 273.97,-1250.42"/>
<polygon fill="midnightblue" stroke="midnightblue" points="236.726,-1242.67 226.395,-1245.02 235.937,-1249.63 236.726,-1242.67"/>
</g>
<!-- Node14 -->
<g id="node14" class="node"><title>Node14</title>
<g id="a_node14"><a xlink:href="class_i_b_knob_control.html" target="_top" xlink:title="A bitmap knob/dial control that draws a frame from a stacked bitmap. ">
<polygon fill="white" stroke="red" points="291,-1209.5 291,-1228.5 375,-1228.5 375,-1209.5 291,-1209.5"/>
<text text-anchor="middle" x="333" y="-1216.5" font-family="Helvetica,sans-Serif" font-size="10.00">IBKnobControl</text>
</a>
</g>
</g>
<!-- Node13&#45;&gt;Node14 -->
<g id="edge13" class="edge"><title>Node13&#45;&gt;Node14</title>
<path fill="none" stroke="midnightblue" d="M223.617,-1134.92C228.723,-1137.13 233.608,-1139.8 238,-1143 262.207,-1160.66 250.367,-1181.58 274,-1200 279.015,-1203.91 284.865,-1207.03 290.883,-1209.51"/>
<polygon fill="midnightblue" stroke="midnightblue" points="224.842,-1131.64 214.25,-1131.39 222.377,-1138.19 224.842,-1131.64"/>
</g>
<!-- Node15 -->
<g id="node15" class="node"><title>Node15</title>
<g id="a_node15"><a xlink:href="class_i_s_v_g_knob.html" target="_top" xlink:title="A vector knob/dial control which rotates an SVG image. ">
<polygon fill="white" stroke="black" points="301,-1171.5 301,-1190.5 365,-1190.5 365,-1171.5 301,-1171.5"/>
<text text-anchor="middle" x="333" y="-1178.5" font-family="Helvetica,sans-Serif" font-size="10.00">ISVGKnob</text>
</a>
</g>
</g>
<!-- Node13&#45;&gt;Node15 -->
<g id="edge14" class="edge"><title>Node13&#45;&gt;Node15</title>
<path fill="none" stroke="midnightblue" d="M218.063,-1136.28C224.851,-1138.3 231.641,-1140.54 238,-1143 254.872,-1149.53 257.344,-1154.94 274,-1162 282.584,-1165.64 292.121,-1169.02 300.94,-1171.9"/>
<polygon fill="midnightblue" stroke="midnightblue" points="218.744,-1132.84 208.17,-1133.5 216.85,-1139.58 218.744,-1132.84"/>
</g>
<!-- Node16 -->
<g id="node16" class="node"><title>Node16</title>
<g id="a_node16"><a xlink:href="class_i_v_knob_control.html" target="_top" xlink:title="A vector knob control drawn using graphics primitves. ">
<polygon fill="white" stroke="black" points="291,-1133.5 291,-1152.5 375,-1152.5 375,-1133.5 291,-1133.5"/>
<text text-anchor="middle" x="333" y="-1140.5" font-family="Helvetica,sans-Serif" font-size="10.00">IVKnobControl</text>
</a>
</g>
</g>
<!-- Node13&#45;&gt;Node16 -->
<g id="edge15" class="edge"><title>Node13&#45;&gt;Node16</title>
<path fill="none" stroke="midnightblue" d="M224.243,-1130.78C246.306,-1133.28 270.796,-1136.06 290.846,-1138.33"/>
<polygon fill="midnightblue" stroke="midnightblue" points="224.633,-1127.3 214.302,-1129.65 223.844,-1134.25 224.633,-1127.3"/>
</g>
<!-- Node17 -->
<g id="node17" class="node"><title>Node17</title>
<g id="a_node17"><a xlink:href="class_test_arc_control.html" target="_top" xlink:title="Control to test drawing arcs. ">
<polygon fill="white" stroke="black" points="290,-1095.5 290,-1114.5 376,-1114.5 376,-1095.5 290,-1095.5"/>
<text text-anchor="middle" x="333" y="-1102.5" font-family="Helvetica,sans-Serif" font-size="10.00">TestArcControl</text>
</a>
</g>
</g>
<!-- Node13&#45;&gt;Node17 -->
<g id="edge16" class="edge"><title>Node13&#45;&gt;Node17</title>
<path fill="none" stroke="midnightblue" d="M224.376,-1117.21C246.002,-1114.76 269.944,-1112.04 289.745,-1109.79"/>
<polygon fill="midnightblue" stroke="midnightblue" points="223.844,-1113.75 214.302,-1118.35 224.633,-1120.7 223.844,-1113.75"/>
</g>
<!-- Node18 -->
<g id="node18" class="node"><title>Node18</title>
<g id="a_node18"><a xlink:href="class_test_blend_control.html" target="_top" xlink:title="Control to test blend methods. ">
<polygon fill="white" stroke="black" points="284.5,-1057.5 284.5,-1076.5 381.5,-1076.5 381.5,-1057.5 284.5,-1057.5"/>
<text text-anchor="middle" x="333" y="-1064.5" font-family="Helvetica,sans-Serif" font-size="10.00">TestBlendControl</text>
</a>
</g>
</g>
<!-- Node13&#45;&gt;Node18 -->
<g id="edge17" class="edge"><title>Node13&#45;&gt;Node18</title>
<path fill="none" stroke="midnightblue" d="M218.063,-1111.72C224.851,-1109.7 231.641,-1107.46 238,-1105 254.872,-1098.47 257.344,-1093.06 274,-1086 282.097,-1082.57 291.04,-1079.36 299.43,-1076.6"/>
<polygon fill="midnightblue" stroke="midnightblue" points="216.85,-1108.42 208.17,-1114.5 218.744,-1115.16 216.85,-1108.42"/>
</g>
<!-- Node19 -->
<g id="node19" class="node"><title>Node19</title>
<g id="a_node19"><a xlink:href="class_test_gradient_control.html" target="_top" xlink:title="Control to test drawing gradients with path based drawing backends. ">
<polygon fill="white" stroke="black" points="277.5,-1019.5 277.5,-1038.5 388.5,-1038.5 388.5,-1019.5 277.5,-1019.5"/>
<text text-anchor="middle" x="333" y="-1026.5" font-family="Helvetica,sans-Serif" font-size="10.00">TestGradientControl</text>
</a>
</g>
</g>
<!-- Node13&#45;&gt;Node19 -->
<g id="edge18" class="edge"><title>Node13&#45;&gt;Node19</title>
<path fill="none" stroke="midnightblue" d="M223.617,-1113.08C228.723,-1110.87 233.608,-1108.2 238,-1105 262.207,-1087.34 250.367,-1066.42 274,-1048 278.931,-1044.16 284.67,-1041.08 290.582,-1038.61"/>
<polygon fill="midnightblue" stroke="midnightblue" points="222.377,-1109.81 214.25,-1116.61 224.842,-1116.36 222.377,-1109.81"/>
</g>
<!-- Node20 -->
<g id="node20" class="node"><title>Node20</title>
<g id="a_node20"><a xlink:href="class_test_layer_control.html" target="_top" xlink:title="Control to test IGraphics layers. ">
<polygon fill="white" stroke="black" points="285,-981.5 285,-1000.5 381,-1000.5 381,-981.5 285,-981.5"/>
<text text-anchor="middle" x="333" y="-988.5" font-family="Helvetica,sans-Serif" font-size="10.00">TestLayerControl</text>
</a>
</g>
</g>
<!-- Node13&#45;&gt;Node20 -->
<g id="edge19" class="edge"><title>Node13&#45;&gt;Node20</title>
<path fill="none" stroke="midnightblue" d="M223.666,-1114.31C228.875,-1111.85 233.767,-1108.79 238,-1105 271.623,-1074.86 241.352,-1041.19 274,-1010 278.061,-1006.12 282.926,-1003.03 288.089,-1000.58"/>
<polygon fill="midnightblue" stroke="midnightblue" points="222.036,-1111.19 214.019,-1118.11 224.606,-1117.7 222.036,-1111.19"/>
</g>
</g>
</svg>
        <g id="navigator" transform="translate(0 0)" fill="#404254">
                <rect fill="#f2f5e9" fill-opacity="0.5" stroke="#606060" stroke-width=".5" x="0" y="0" width="60" height="60"/>
                <use id="zoomplus" xlink:href="#zoomPlus" x="17" y="9" onmousedown="handleZoom(evt,'in')"/>
                <use id="zoomminus" xlink:href="#zoomMin" x="42" y="9" onmousedown="handleZoom(evt,'out')"/>
                <use id="reset" xlink:href="#resetDef" x="30" y="36" onmousedown="handleReset()"/>
                <g id="arrowUp" xlink:href="#dirArrow" transform="translate(30 24)" onmousedown="handlePan(0,-1)">
                  <use xlink:href="#rim" fill="#404040">
                        <set attributeName="fill" to="#808080" begin="arrowUp.mouseover" end="arrowUp.mouseout"/>
                  </use>
                  <path fill="none" stroke="white" stroke-width="1.5" d="M0,-3.0v7 M-2.5,-0.5L0,-3.0L2.5,-0.5"/>
                </g>
                <g id="arrowRight" xlink:href="#dirArrow" transform="rotate(90) translate(36 -43)" onmousedown="handlePan(1,0)">
                  <use xlink:href="#rim" fill="#404040">
                        <set attributeName="fill" to="#808080" begin="arrowRight.mouseover" end="arrowRight.mouseout"/>
                  </use>
                  <path fill="none" stroke="white" stroke-width="1.5" d="M0,-3.0v7 M-2.5,-0.5L0,-3.0L2.5,-0.5"/>
                </g>
                <g id="arrowDown" xlink:href="#dirArrow" transform="rotate(180) translate(-30 -48)" onmousedown="handlePan(0,1)">
                  <use xlink:href="#rim" fill="#404040">
                        <set attributeName="fill" to="#808080" begin="arrowDown.mouseover" end="arrowDown.mouseout"/>
                  </use>
                  <path fill="none" stroke="white" stroke-width="1.5" d="M0,-3.0v7 M-2.5,-0.5L0,-3.0L2.5,-0.5"/>
                </g>
                <g id="arrowLeft" xlink:href="#dirArrow" transform="rotate(270) translate(-36 17)" onmousedown="handlePan(-1,0)">
                  <use xlink:href="#rim" fill="#404040">
                        <set attributeName="fill" to="#808080" begin="arrowLeft.mouseover" end="arrowLeft.mouseout"/>
                  </use>
                  <path fill="none" stroke="white" stroke-width="1.5" d="M0,-3.0v7 M-2.5,-0.5L0,-3.0L2.5,-0.5"/>
                </g>
        </g>
        <svg viewBox="0 0 15 15" width="100%" height="30px" preserveAspectRatio="xMaxYMin meet">
         <g id="arrow_out" transform="scale(0.3 0.3)">
          <a xlink:href="class_i_control__inherit__graph_org.svg" target="_base">
           <rect id="button" ry="5" rx="5" y="6" x="6" height="38" width="38"
                fill="#f2f5e9" fill-opacity="0.5" stroke="#606060" stroke-width="1.0"/>
           <path id="arrow"
             d="M 11.500037,31.436501 C 11.940474,20.09759 22.043105,11.32322 32.158766,21.979434 L 37.068811,17.246167 C 37.068811,17.246167 37.088388,32 37.088388,32 L 22.160133,31.978069 C 22.160133,31.978069 26.997745,27.140456 26.997745,27.140456 C 18.528582,18.264221 13.291696,25.230495 11.500037,31.436501 z"
             style="fill:#404040;"/>
          </a>
         </g>
        </svg>
</svg>
