<?xml version="1.0" encoding="UTF-8" standalone="no"?>
<!DOCTYPE svg PUBLIC "-//W3C//DTD SVG 1.1//EN"
 "http://www.w3.org/Graphics/SVG/1.1/DTD/svg11.dtd">
<!-- Generated by graphviz version 2.38.0 (20140413.2041)
 -->
<!-- Title: IEditorDelegate Pages: 1 -->
<svg width="626pt" height="332pt"
 viewBox="0.00 0.00 626.00 332.00" xmlns="http://www.w3.org/2000/svg" xmlns:xlink="http://www.w3.org/1999/xlink">
<g id="graph0" class="graph" transform="scale(1 1) rotate(0) translate(4 328)">
<title>IEditorDelegate</title>
<polygon fill="white" stroke="none" points="-4,4 -4,-328 622,-328 622,4 -4,4"/>
<!-- Node1 -->
<g id="node1" class="node"><title>Node1</title>
<polygon fill="#bfbfbf" stroke="black" points="0,-152.5 0,-171.5 90,-171.5 90,-152.5 0,-152.5"/>
<text text-anchor="middle" x="45" y="-159.5" font-family="Helvetica,sans-Serif" font-size="10.00">IEditorDelegate</text>
</g>
<!-- Node2 -->
<g id="node2" class="node"><title>Node2</title>
<g id="a_node2"><a xlink:href="class_i_g_editor_delegate.html" target="_top" xlink:title="An editor delegate base class for a SOMETHING that uses IGraphics for it&#39;s UI. ">
<polygon fill="white" stroke="black" points="126,-190.5 126,-209.5 224,-209.5 224,-190.5 126,-190.5"/>
<text text-anchor="middle" x="175" y="-197.5" font-family="Helvetica,sans-Serif" font-size="10.00">IGEditorDelegate</text>
</a>
</g>
</g>
<!-- Node1&#45;&gt;Node2 -->
<g id="edge1" class="edge"><title>Node1&#45;&gt;Node2</title>
<path fill="none" stroke="midnightblue" d="M88.2242,-174.535C105.637,-179.705 125.492,-185.599 141.711,-190.414"/>
<polygon fill="midnightblue" stroke="midnightblue" points="88.8824,-171.08 78.2998,-171.589 86.8902,-177.79 88.8824,-171.08"/>
</g>
<!-- Node3 -->
<g id="node3" class="node"><title>Node3</title>
<g id="a_node3"><a xlink:href="class_i_plugin_base.html" target="_top" xlink:title="Base class that contains plug&#45;in info and state manipulation methods. ">
<polygon fill="white" stroke="black" points="139.5,-152.5 139.5,-171.5 210.5,-171.5 210.5,-152.5 139.5,-152.5"/>
<text text-anchor="middle" x="175" y="-159.5" font-family="Helvetica,sans-Serif" font-size="10.00">IPluginBase</text>
</a>
</g>
</g>
<!-- Node1&#45;&gt;Node3 -->
<g id="edge2" class="edge"><title>Node1&#45;&gt;Node3</title>
<path fill="none" stroke="midnightblue" d="M100.415,-162C113.539,-162 127.214,-162 139.163,-162"/>
<polygon fill="midnightblue" stroke="midnightblue" points="100.05,-158.5 90.0503,-162 100.05,-165.5 100.05,-158.5"/>
</g>
<!-- Node15 -->
<g id="node15" class="node"><title>Node15</title>
<g id="a_node15"><a xlink:href="class_reaper_ext_base.html" target="_top" xlink:title="ReaperExtBase">
<polygon fill="white" stroke="black" points="130.5,-114.5 130.5,-133.5 219.5,-133.5 219.5,-114.5 130.5,-114.5"/>
<text text-anchor="middle" x="175" y="-121.5" font-family="Helvetica,sans-Serif" font-size="10.00">ReaperExtBase</text>
</a>
</g>
</g>
<!-- Node1&#45;&gt;Node15 -->
<g id="edge14" class="edge"><title>Node1&#45;&gt;Node15</title>
<path fill="none" stroke="midnightblue" d="M88.2242,-149.465C105.637,-144.295 125.492,-138.401 141.711,-133.586"/>
<polygon fill="midnightblue" stroke="midnightblue" points="86.8902,-146.21 78.2998,-152.411 88.8824,-152.92 86.8902,-146.21"/>
</g>
<!-- Node4 -->
<g id="node4" class="node"><title>Node4</title>
<g id="a_node4"><a xlink:href="class_i_plug_a_p_i_base.html" target="_top" xlink:title="The base class of an IPlug plug&#45;in, which interacts with the different plug&#45;in APIs. ">
<polygon fill="white" stroke="black" points="260,-152.5 260,-171.5 338,-171.5 338,-152.5 260,-152.5"/>
<text text-anchor="middle" x="299" y="-159.5" font-family="Helvetica,sans-Serif" font-size="10.00">IPlugAPIBase</text>
</a>
</g>
</g>
<!-- Node3&#45;&gt;Node4 -->
<g id="edge3" class="edge"><title>Node3&#45;&gt;Node4</title>
<path fill="none" stroke="midnightblue" d="M220.673,-162C233.529,-162 247.43,-162 259.853,-162"/>
<polygon fill="midnightblue" stroke="midnightblue" points="220.634,-158.5 210.634,-162 220.634,-165.5 220.634,-158.5"/>
</g>
<!-- Node5 -->
<g id="node5" class="node"><title>Node5</title>
<g id="a_node5"><a xlink:href="class_i_plug_a_a_x.html" target="_top" xlink:title="AAX API base class for an IPlug plug&#45;in. ">
<polygon fill="white" stroke="black" points="400,-304.5 400,-323.5 459,-323.5 459,-304.5 400,-304.5"/>
<text text-anchor="middle" x="429.5" y="-311.5" font-family="Helvetica,sans-Serif" font-size="10.00">IPlugAAX</text>
</a>
</g>
</g>
<!-- Node4&#45;&gt;Node5 -->
<g id="edge4" class="edge"><title>Node4&#45;&gt;Node5</title>
<path fill="none" stroke="midnightblue" d="M305.784,-181.261C315.374,-210.015 337.24,-264.084 374,-295 381.362,-301.192 390.867,-305.411 399.872,-308.267"/>
<polygon fill="midnightblue" stroke="midnightblue" points="309.072,-180.049 302.705,-171.581 302.401,-182.172 309.072,-180.049"/>
</g>
<!-- Node6 -->
<g id="node6" class="node"><title>Node6</title>
<g id="a_node6"><a xlink:href="class_i_plug_a_p_p.html" target="_top" xlink:title="Standalone application base class for an IPlug plug&#45;in. ">
<polygon fill="white" stroke="black" points="400.5,-266.5 400.5,-285.5 458.5,-285.5 458.5,-266.5 400.5,-266.5"/>
<text text-anchor="middle" x="429.5" y="-273.5" font-family="Helvetica,sans-Serif" font-size="10.00">IPlugAPP</text>
</a>
</g>
</g>
<!-- Node4&#45;&gt;Node6 -->
<g id="edge5" class="edge"><title>Node4&#45;&gt;Node6</title>
<path fill="none" stroke="midnightblue" d="M309.861,-180.285C322.209,-201.56 345.273,-236.394 374,-257 381.817,-262.607 391.435,-266.68 400.404,-269.582"/>
<polygon fill="midnightblue" stroke="midnightblue" points="312.91,-178.567 304.96,-171.564 306.808,-181.996 312.91,-178.567"/>
</g>
<!-- Node7 -->
<g id="node7" class="node"><title>Node7</title>
<g id="a_node7"><a xlink:href="class_i_plug_a_u.html" target="_top" xlink:title="AudioUnit v2 API base class for an IPlug plug&#45;in. ">
<polygon fill="white" stroke="black" points="403,-228.5 403,-247.5 456,-247.5 456,-228.5 403,-228.5"/>
<text text-anchor="middle" x="429.5" y="-235.5" font-family="Helvetica,sans-Serif" font-size="10.00">IPlugAU</text>
</a>
</g>
</g>
<!-- Node4&#45;&gt;Node7 -->
<g id="edge6" class="edge"><title>Node4&#45;&gt;Node7</title>
<path fill="none" stroke="midnightblue" d="M317.874,-178.428C332.194,-190.906 353.254,-207.777 374,-219 382.99,-223.863 393.468,-227.867 402.821,-230.925"/>
<polygon fill="midnightblue" stroke="midnightblue" points="320.071,-175.699 310.274,-171.666 315.418,-180.928 320.071,-175.699"/>
</g>
<!-- Node8 -->
<g id="node8" class="node"><title>Node8</title>
<g id="a_node8"><a xlink:href="class_i_plug_v_s_t2.html" target="_top" xlink:title="VST2.4 API base class for an IPlug plug&#45;in. ">
<polygon fill="white" stroke="black" points="397.5,-190.5 397.5,-209.5 461.5,-209.5 461.5,-190.5 397.5,-190.5"/>
<text text-anchor="middle" x="429.5" y="-197.5" font-family="Helvetica,sans-Serif" font-size="10.00">IPlugVST2</text>
</a>
</g>
</g>
<!-- Node4&#45;&gt;Node8 -->
<g id="edge7" class="edge"><title>Node4&#45;&gt;Node8</title>
<path fill="none" stroke="midnightblue" d="M342.124,-174.457C360.146,-179.786 380.815,-185.899 397.414,-190.807"/>
<polygon fill="midnightblue" stroke="midnightblue" points="343.008,-171.069 332.426,-171.589 341.023,-177.781 343.008,-171.069"/>
</g>
<!-- Node10 -->
<g id="node10" class="node"><title>Node10</title>
<g id="a_node10"><a xlink:href="class_i_plug_v_s_t3.html" target="_top" xlink:title="VST3 base class for a non&#45;distributed IPlug VST3 plug&#45;in. ">
<polygon fill="white" stroke="black" points="397.5,-152.5 397.5,-171.5 461.5,-171.5 461.5,-152.5 397.5,-152.5"/>
<text text-anchor="middle" x="429.5" y="-159.5" font-family="Helvetica,sans-Serif" font-size="10.00">IPlugVST3</text>
</a>
</g>
</g>
<!-- Node4&#45;&gt;Node10 -->
<g id="edge9" class="edge"><title>Node4&#45;&gt;Node10</title>
<path fill="none" stroke="midnightblue" d="M348.635,-162C364.888,-162 382.56,-162 397.139,-162"/>
<polygon fill="midnightblue" stroke="midnightblue" points="348.206,-158.5 338.206,-162 348.206,-165.5 348.206,-158.5"/>
</g>
<!-- Node11 -->
<g id="node11" class="node"><title>Node11</title>
<g id="a_node11"><a xlink:href="class_i_plug_v_s_t3_controller.html" target="_top" xlink:title="VST3 Controller API&#45;base class for a distributed IPlug VST3 plug&#45;in. ">
<polygon fill="white" stroke="black" points="374.5,-114.5 374.5,-133.5 484.5,-133.5 484.5,-114.5 374.5,-114.5"/>
<text text-anchor="middle" x="429.5" y="-121.5" font-family="Helvetica,sans-Serif" font-size="10.00">IPlugVST3Controller</text>
</a>
</g>
</g>
<!-- Node4&#45;&gt;Node11 -->
<g id="edge10" class="edge"><title>Node4&#45;&gt;Node11</title>
<path fill="none" stroke="midnightblue" d="M342.389,-149.465C359.87,-144.295 379.802,-138.401 396.084,-133.586"/>
<polygon fill="midnightblue" stroke="midnightblue" points="341.023,-146.219 332.426,-152.411 343.008,-152.931 341.023,-146.219"/>
</g>
<!-- Node12 -->
<g id="node12" class="node"><title>Node12</title>
<g id="a_node12"><a xlink:href="class_i_plug_v_s_t3_processor.html" target="_top" xlink:title="VST3 Processor API&#45;base class for a distributed IPlug VST3 plug&#45;in. ">
<polygon fill="white" stroke="black" points="374,-76.5 374,-95.5 485,-95.5 485,-76.5 374,-76.5"/>
<text text-anchor="middle" x="429.5" y="-83.5" font-family="Helvetica,sans-Serif" font-size="10.00">IPlugVST3Processor</text>
</a>
</g>
</g>
<!-- Node4&#45;&gt;Node12 -->
<g id="edge11" class="edge"><title>Node4&#45;&gt;Node12</title>
<path fill="none" stroke="midnightblue" d="M317.874,-145.572C332.194,-133.094 353.254,-116.223 374,-105 380.698,-101.376 388.223,-98.2298 395.492,-95.5962"/>
<polygon fill="midnightblue" stroke="midnightblue" points="315.418,-143.072 310.274,-152.334 320.071,-148.301 315.418,-143.072"/>
</g>
<!-- Node13 -->
<g id="node13" class="node"><title>Node13</title>
<g id="a_node13"><a xlink:href="class_i_plug_w_a_m.html" target="_top" xlink:title="WebAudioModule (WAM) API base class. ">
<polygon fill="white" stroke="black" points="398.5,-38.5 398.5,-57.5 460.5,-57.5 460.5,-38.5 398.5,-38.5"/>
<text text-anchor="middle" x="429.5" y="-45.5" font-family="Helvetica,sans-Serif" font-size="10.00">IPlugWAM</text>
</a>
</g>
</g>
<!-- Node4&#45;&gt;Node13 -->
<g id="edge12" class="edge"><title>Node4&#45;&gt;Node13</title>
<path fill="none" stroke="midnightblue" d="M309.861,-143.715C322.209,-122.44 345.273,-87.6055 374,-67 381.247,-61.8021 390.042,-57.9219 398.433,-55.0715"/>
<polygon fill="midnightblue" stroke="midnightblue" points="306.808,-142.004 304.96,-152.436 312.91,-145.433 306.808,-142.004"/>
</g>
<!-- Node14 -->
<g id="node14" class="node"><title>Node14</title>
<g id="a_node14"><a xlink:href="class_i_plug_web.html" target="_top" xlink:title="This is used for the UI &quot;editor&quot; &#45; controller side of a WAM or remote editors that communicate with d...">
<polygon fill="white" stroke="black" points="400,-0.5 400,-19.5 459,-19.5 459,-0.5 400,-0.5"/>
<text text-anchor="middle" x="429.5" y="-7.5" font-family="Helvetica,sans-Serif" font-size="10.00">IPlugWeb</text>
</a>
</g>
</g>
<!-- Node4&#45;&gt;Node14 -->
<g id="edge13" class="edge"><title>Node4&#45;&gt;Node14</title>
<path fill="none" stroke="midnightblue" d="M305.784,-142.739C315.374,-113.985 337.24,-59.9158 374,-29 381.362,-22.8084 390.867,-18.5887 399.872,-15.7325"/>
<polygon fill="midnightblue" stroke="midnightblue" points="302.401,-141.828 302.705,-152.419 309.072,-143.951 302.401,-141.828"/>
</g>
<!-- Node9 -->
<g id="node9" class="node"><title>Node9</title>
<g id="a_node9"><a xlink:href="class_i_plug_reaper_v_s_t2.html" target="_top" xlink:title="Reaper specific VST2.4 API base class for an IPlug plug&#45;in. ">
<polygon fill="white" stroke="black" points="521,-190.5 521,-209.5 618,-209.5 618,-190.5 521,-190.5"/>
<text text-anchor="middle" x="569.5" y="-197.5" font-family="Helvetica,sans-Serif" font-size="10.00">IPlugReaperVST2</text>
</a>
</g>
</g>
<!-- Node8&#45;&gt;Node9 -->
<g id="edge8" class="edge"><title>Node8&#45;&gt;Node9</title>
<path fill="none" stroke="midnightblue" d="M472.051,-200C487.405,-200 504.925,-200 520.783,-200"/>
<polygon fill="midnightblue" stroke="midnightblue" points="471.814,-196.5 461.814,-200 471.814,-203.5 471.814,-196.5"/>
</g>
</g>
</svg>
