<?xml version="1.0" encoding="UTF-8" standalone="no"?>
<!DOCTYPE svg PUBLIC "-//W3C//DTD SVG 1.1//EN"
 "http://www.w3.org/Graphics/SVG/1.1/DTD/svg11.dtd">
<!-- Generated by graphviz version 2.38.0 (20140413.2041)
 -->
<!-- Title: IVectorBase Pages: 1 -->
<svg width="431pt" height="519pt"
 viewBox="0.00 0.00 431.00 519.00" xmlns="http://www.w3.org/2000/svg" xmlns:xlink="http://www.w3.org/1999/xlink">
<g id="graph0" class="graph" transform="scale(1 1) rotate(0) translate(4 515)">
<title>IVectorBase</title>
<polygon fill="white" stroke="none" points="-4,4 -4,-515 427,-515 427,4 -4,4"/>
<!-- Node1 -->
<g id="node1" class="node"><title>Node1</title>
<polygon fill="#bfbfbf" stroke="black" points="0,-279.5 0,-298.5 74,-298.5 74,-279.5 0,-279.5"/>
<text text-anchor="middle" x="37" y="-286.5" font-family="Helvetica,sans-Serif" font-size="10.00">IVectorBase</text>
</g>
<!-- Node2 -->
<g id="node2" class="node"><title>Node2</title>
<g id="a_node2"><a xlink:href="class_i_f_p_s_display_control.html" target="_top" xlink:title="Performance display meter, based on code from NanoVG This is a special control that lives outside the...">
<polygon fill="white" stroke="black" points="127,-491.5 127,-510.5 233,-510.5 233,-491.5 127,-491.5"/>
<text text-anchor="middle" x="180" y="-498.5" font-family="Helvetica,sans-Serif" font-size="10.00">IFPSDisplayControl</text>
</a>
</g>
</g>
<!-- Node1&#45;&gt;Node2 -->
<g id="edge1" class="edge"><title>Node1&#45;&gt;Node2</title>
<path fill="none" stroke="midnightblue" d="M39.5682,-308.768C43.744,-347.782 58.6183,-434.969 110,-482 114.858,-486.446 120.661,-489.866 126.811,-492.493"/>
<polygon fill="midnightblue" stroke="midnightblue" points="43.0429,-308.335 38.6195,-298.707 36.0738,-308.992 43.0429,-308.335"/>
</g>
<!-- Node3 -->
<g id="node3" class="node"><title>Node3</title>
<g id="a_node3"><a xlink:href="class_i_v_button_control.html" target="_top" xlink:title="A vector button/momentary switch control. ">
<polygon fill="white" stroke="black" points="134,-453.5 134,-472.5 226,-472.5 226,-453.5 134,-453.5"/>
<text text-anchor="middle" x="180" y="-460.5" font-family="Helvetica,sans-Serif" font-size="10.00">IVButtonControl</text>
</a>
</g>
</g>
<!-- Node1&#45;&gt;Node3 -->
<g id="edge2" class="edge"><title>Node1&#45;&gt;Node3</title>
<path fill="none" stroke="midnightblue" d="M41.6463,-308.922C48.7589,-342.003 67.6553,-408.165 110,-444 116.829,-449.779 125.275,-453.81 133.887,-456.62"/>
<polygon fill="midnightblue" stroke="midnightblue" points="44.996,-307.824 39.6028,-298.704 38.132,-309.197 44.996,-307.824"/>
</g>
<!-- Node4 -->
<g id="node4" class="node"><title>Node4</title>
<g id="a_node4"><a xlink:href="class_i_v_display_control.html" target="_top" xlink:title="IVDisplayControl">
<polygon fill="white" stroke="black" points="132.5,-415.5 132.5,-434.5 227.5,-434.5 227.5,-415.5 132.5,-415.5"/>
<text text-anchor="middle" x="180" y="-422.5" font-family="Helvetica,sans-Serif" font-size="10.00">IVDisplayControl</text>
</a>
</g>
</g>
<!-- Node1&#45;&gt;Node4 -->
<g id="edge3" class="edge"><title>Node1&#45;&gt;Node4</title>
<path fill="none" stroke="midnightblue" d="M44.601,-308.071C54.6128,-334.146 76.1355,-380.579 110,-406 116.558,-410.923 124.321,-414.571 132.232,-417.273"/>
<polygon fill="midnightblue" stroke="midnightblue" points="47.8432,-306.746 41.1161,-298.561 41.2706,-309.154 47.8432,-306.746"/>
</g>
<!-- Node5 -->
<g id="node5" class="node"><title>Node5</title>
<g id="a_node5"><a xlink:href="class_i_v_knob_control.html" target="_top" xlink:title="A vector knob control drawn using graphics primitves. ">
<polygon fill="white" stroke="black" points="138,-377.5 138,-396.5 222,-396.5 222,-377.5 138,-377.5"/>
<text text-anchor="middle" x="180" y="-384.5" font-family="Helvetica,sans-Serif" font-size="10.00">IVKnobControl</text>
</a>
</g>
</g>
<!-- Node1&#45;&gt;Node5 -->
<g id="edge4" class="edge"><title>Node1&#45;&gt;Node5</title>
<path fill="none" stroke="midnightblue" d="M49.8783,-307.128C62.6358,-325.178 84.5414,-352.384 110,-368 118.367,-373.132 128.141,-376.906 137.657,-379.672"/>
<polygon fill="midnightblue" stroke="midnightblue" points="52.6037,-304.913 44.0704,-298.633 46.8251,-308.863 52.6037,-304.913"/>
</g>
<!-- Node6 -->
<g id="node6" class="node"><title>Node6</title>
<g id="a_node6"><a xlink:href="class_i_v_label_control.html" target="_top" xlink:title="IVLabelControl">
<polygon fill="white" stroke="black" points="137,-339.5 137,-358.5 223,-358.5 223,-339.5 137,-339.5"/>
<text text-anchor="middle" x="180" y="-346.5" font-family="Helvetica,sans-Serif" font-size="10.00">IVLabelControl</text>
</a>
</g>
</g>
<!-- Node1&#45;&gt;Node6 -->
<g id="edge5" class="edge"><title>Node1&#45;&gt;Node6</title>
<path fill="none" stroke="midnightblue" d="M61.1237,-304.135C74.8871,-312.636 92.9428,-322.925 110,-330 118.837,-333.665 128.601,-336.845 137.934,-339.499"/>
<polygon fill="midnightblue" stroke="midnightblue" points="62.671,-300.973 52.346,-298.597 58.9358,-306.893 62.671,-300.973"/>
</g>
<!-- Node7 -->
<g id="node7" class="node"><title>Node7</title>
<g id="a_node7"><a xlink:href="class_i_v_plot_control.html" target="_top" xlink:title="IVPlotControl">
<polygon fill="white" stroke="black" points="141,-301.5 141,-320.5 219,-320.5 219,-301.5 141,-301.5"/>
<text text-anchor="middle" x="180" y="-308.5" font-family="Helvetica,sans-Serif" font-size="10.00">IVPlotControl</text>
</a>
</g>
</g>
<!-- Node1&#45;&gt;Node7 -->
<g id="edge6" class="edge"><title>Node1&#45;&gt;Node7</title>
<path fill="none" stroke="midnightblue" d="M84.2048,-296.209C102.544,-299.071 123.381,-302.322 140.84,-305.046"/>
<polygon fill="midnightblue" stroke="midnightblue" points="84.7311,-292.749 74.311,-294.666 83.6519,-299.665 84.7311,-292.749"/>
</g>
<!-- Node8 -->
<g id="node8" class="node"><title>Node8</title>
<g id="a_node8"><a xlink:href="class_i_v_scope_control.html" target="_top" xlink:title="Vectorial multichannel capable oscilloscope control. ">
<polygon fill="white" stroke="black" points="110,-252 110,-282 250,-282 250,-252 110,-252"/>
<text text-anchor="start" x="118" y="-270" font-family="Helvetica,sans-Serif" font-size="10.00">IVScopeControl&lt; MAXNC,</text>
<text text-anchor="middle" x="180" y="-259" font-family="Helvetica,sans-Serif" font-size="10.00"> MAXBUF, QUEUE_SIZE &gt;</text>
</a>
</g>
</g>
<!-- Node1&#45;&gt;Node8 -->
<g id="edge7" class="edge"><title>Node1&#45;&gt;Node8</title>
<path fill="none" stroke="midnightblue" d="M84.3923,-281.761C92.5912,-280.482 101.285,-279.126 109.949,-277.774"/>
<polygon fill="midnightblue" stroke="midnightblue" points="83.6519,-278.335 74.311,-283.334 84.7311,-285.251 83.6519,-278.335"/>
</g>
<!-- Node9 -->
<g id="node9" class="node"><title>Node9</title>
<g id="a_node9"><a xlink:href="class_i_v_slider_control.html" target="_top" xlink:title="A vector slider control. ">
<polygon fill="white" stroke="black" points="136.5,-213.5 136.5,-232.5 223.5,-232.5 223.5,-213.5 136.5,-213.5"/>
<text text-anchor="middle" x="180" y="-220.5" font-family="Helvetica,sans-Serif" font-size="10.00">IVSliderControl</text>
</a>
</g>
</g>
<!-- Node1&#45;&gt;Node9 -->
<g id="edge8" class="edge"><title>Node1&#45;&gt;Node9</title>
<path fill="none" stroke="midnightblue" d="M58.9696,-273.32C72.8662,-263.517 91.8225,-251.234 110,-243 119.089,-238.883 129.235,-235.386 138.891,-232.524"/>
<polygon fill="midnightblue" stroke="midnightblue" points="56.6909,-270.648 50.6273,-279.336 60.7855,-276.326 56.6909,-270.648"/>
</g>
<!-- Node10 -->
<g id="node10" class="node"><title>Node10</title>
<g id="a_node10"><a xlink:href="class_i_v_switch_control.html" target="_top" xlink:title="A vector switch control. ">
<polygon fill="white" stroke="black" points="134.5,-175.5 134.5,-194.5 225.5,-194.5 225.5,-175.5 134.5,-175.5"/>
<text text-anchor="middle" x="180" y="-182.5" font-family="Helvetica,sans-Serif" font-size="10.00">IVSwitchControl</text>
</a>
</g>
</g>
<!-- Node1&#45;&gt;Node10 -->
<g id="edge9" class="edge"><title>Node1&#45;&gt;Node10</title>
<path fill="none" stroke="midnightblue" d="M48.6308,-270.925C60.9701,-251.522 83.1065,-221.176 110,-204 117.33,-199.319 125.811,-195.777 134.264,-193.101"/>
<polygon fill="midnightblue" stroke="midnightblue" points="45.636,-269.114 43.3823,-279.466 51.5999,-272.779 45.636,-269.114"/>
</g>
<!-- Node13 -->
<g id="node13" class="node"><title>Node13</title>
<g id="a_node13"><a xlink:href="class_i_v_tab_switch_control.html" target="_top" xlink:title="A vector &quot;tab&quot; multi switch control. ">
<polygon fill="white" stroke="black" points="126.5,-137.5 126.5,-156.5 233.5,-156.5 233.5,-137.5 126.5,-137.5"/>
<text text-anchor="middle" x="180" y="-144.5" font-family="Helvetica,sans-Serif" font-size="10.00">IVTabSwitchControl</text>
</a>
</g>
</g>
<!-- Node1&#45;&gt;Node13 -->
<g id="edge12" class="edge"><title>Node1&#45;&gt;Node13</title>
<path fill="none" stroke="midnightblue" d="M44.0556,-269.729C53.6181,-242.481 74.8323,-193.011 110,-166 115.026,-162.14 120.787,-159.064 126.792,-156.613"/>
<polygon fill="midnightblue" stroke="midnightblue" points="40.7069,-268.707 40.858,-279.301 47.3462,-270.925 40.7069,-268.707"/>
</g>
<!-- Node15 -->
<g id="node15" class="node"><title>Node15</title>
<g id="a_node15"><a xlink:href="class_i_v_track_control_base.html" target="_top" xlink:title="A base class for mult&#45;strip/track controls, such as multi&#45;sliders, meters. ">
<polygon fill="white" stroke="black" points="126,-93.5 126,-112.5 234,-112.5 234,-93.5 126,-93.5"/>
<text text-anchor="middle" x="180" y="-100.5" font-family="Helvetica,sans-Serif" font-size="10.00">IVTrackControlBase</text>
</a>
</g>
</g>
<!-- Node1&#45;&gt;Node15 -->
<g id="edge14" class="edge"><title>Node1&#45;&gt;Node15</title>
<path fill="none" stroke="midnightblue" d="M41.6432,-269.13C48.8181,-235.485 67.8903,-167.146 110,-128 117.279,-121.234 126.528,-116.269 135.87,-112.638"/>
<polygon fill="midnightblue" stroke="midnightblue" points="38.1748,-268.627 39.65,-279.118 45.0395,-269.997 38.1748,-268.627"/>
</g>
<!-- Node19 -->
<g id="node19" class="node"><title>Node19</title>
<g id="a_node19"><a xlink:href="class_i_v_x_y_pad_control.html" target="_top" xlink:title="IVXYPadControl">
<polygon fill="white" stroke="black" points="135.5,-55.5 135.5,-74.5 224.5,-74.5 224.5,-55.5 135.5,-55.5"/>
<text text-anchor="middle" x="180" y="-62.5" font-family="Helvetica,sans-Serif" font-size="10.00">IVXYPadControl</text>
</a>
</g>
</g>
<!-- Node1&#45;&gt;Node19 -->
<g id="edge18" class="edge"><title>Node1&#45;&gt;Node19</title>
<path fill="none" stroke="midnightblue" d="M39.077,-269.136C42.3858,-228.312 55.8026,-134.578 110,-84 116.995,-77.4725 126.024,-73.1528 135.231,-70.3033"/>
<polygon fill="midnightblue" stroke="midnightblue" points="35.5815,-268.951 38.3863,-279.167 42.565,-269.431 35.5815,-268.951"/>
</g>
<!-- Node11 -->
<g id="node11" class="node"><title>Node11</title>
<g id="a_node11"><a xlink:href="class_i_v_slide_switch_control.html" target="_top" xlink:title="/todo. ">
<polygon fill="white" stroke="black" points="297.5,-213.5 297.5,-232.5 411.5,-232.5 411.5,-213.5 297.5,-213.5"/>
<text text-anchor="middle" x="354.5" y="-220.5" font-family="Helvetica,sans-Serif" font-size="10.00">IVSlideSwitchControl</text>
</a>
</g>
</g>
<!-- Node10&#45;&gt;Node11 -->
<g id="edge10" class="edge"><title>Node10&#45;&gt;Node11</title>
<path fill="none" stroke="midnightblue" d="M234.351,-196.753C258.742,-202.126 287.263,-208.409 310.284,-213.48"/>
<polygon fill="midnightblue" stroke="midnightblue" points="235.048,-193.322 224.529,-194.589 233.542,-200.158 235.048,-193.322"/>
</g>
<!-- Node12 -->
<g id="node12" class="node"><title>Node12</title>
<g id="a_node12"><a xlink:href="class_i_v_toggle_control.html" target="_top" xlink:title="A vector toggle control. ">
<polygon fill="white" stroke="black" points="309.5,-175.5 309.5,-194.5 399.5,-194.5 399.5,-175.5 309.5,-175.5"/>
<text text-anchor="middle" x="354.5" y="-182.5" font-family="Helvetica,sans-Serif" font-size="10.00">IVToggleControl</text>
</a>
</g>
</g>
<!-- Node10&#45;&gt;Node12 -->
<g id="edge11" class="edge"><title>Node10&#45;&gt;Node12</title>
<path fill="none" stroke="midnightblue" d="M236.126,-185C259.821,-185 287.136,-185 309.45,-185"/>
<polygon fill="midnightblue" stroke="midnightblue" points="235.872,-181.5 225.872,-185 235.872,-188.5 235.872,-181.5"/>
</g>
<!-- Node14 -->
<g id="node14" class="node"><title>Node14</title>
<g id="a_node14"><a xlink:href="class_i_v_radio_button_control.html" target="_top" xlink:title="IVRadioButtonControl">
<polygon fill="white" stroke="black" points="295,-137.5 295,-156.5 414,-156.5 414,-137.5 295,-137.5"/>
<text text-anchor="middle" x="354.5" y="-144.5" font-family="Helvetica,sans-Serif" font-size="10.00">IVRadioButtonControl</text>
</a>
</g>
</g>
<!-- Node13&#45;&gt;Node14 -->
<g id="edge13" class="edge"><title>Node13&#45;&gt;Node14</title>
<path fill="none" stroke="midnightblue" d="M243.867,-147C260.506,-147 278.401,-147 294.81,-147"/>
<polygon fill="midnightblue" stroke="midnightblue" points="243.693,-143.5 233.693,-147 243.693,-150.5 243.693,-143.5"/>
</g>
<!-- Node16 -->
<g id="node16" class="node"><title>Node16</title>
<g id="a_node16"><a xlink:href="class_i_v_meter_control.html" target="_top" xlink:title="Vectorial multichannel capable meter control. ">
<polygon fill="white" stroke="black" points="286,-88 286,-118 423,-118 423,-88 286,-88"/>
<text text-anchor="start" x="294" y="-106" font-family="Helvetica,sans-Serif" font-size="10.00">IVMeterControl&lt; MAXNC,</text>
<text text-anchor="middle" x="354.5" y="-95" font-family="Helvetica,sans-Serif" font-size="10.00"> QUEUE_SIZE &gt;</text>
</a>
</g>
</g>
<!-- Node15&#45;&gt;Node16 -->
<g id="edge15" class="edge"><title>Node15&#45;&gt;Node16</title>
<path fill="none" stroke="midnightblue" d="M244.323,-103C257.848,-103 272.184,-103 285.864,-103"/>
<polygon fill="midnightblue" stroke="midnightblue" points="244.163,-99.5001 234.163,-103 244.163,-106.5 244.163,-99.5001"/>
</g>
<!-- Node17 -->
<g id="node17" class="node"><title>Node17</title>
<g id="a_node17"><a xlink:href="class_i_v_multi_slider_control.html" target="_top" xlink:title="A vectorial multi&#45;slider control. ">
<polygon fill="white" stroke="black" points="299.5,-39 299.5,-69 409.5,-69 409.5,-39 299.5,-39"/>
<text text-anchor="start" x="307.5" y="-57" font-family="Helvetica,sans-Serif" font-size="10.00">IVMultiSliderControl</text>
<text text-anchor="middle" x="354.5" y="-46" font-family="Helvetica,sans-Serif" font-size="10.00">&lt; MAXNC &gt;</text>
</a>
</g>
</g>
<!-- Node15&#45;&gt;Node17 -->
<g id="edge16" class="edge"><title>Node15&#45;&gt;Node17</title>
<path fill="none" stroke="midnightblue" d="M225.785,-90.762C233.851,-88.531 242.18,-86.21 250,-84 267.013,-79.1922 285.569,-73.8459 302.211,-69.0139"/>
<polygon fill="midnightblue" stroke="midnightblue" points="224.837,-87.3926 216.127,-93.4252 226.698,-94.1407 224.837,-87.3926"/>
</g>
<!-- Node18 -->
<g id="node18" class="node"><title>Node18</title>
<g id="a_node18"><a xlink:href="class_i_v_range_slider_control.html" target="_top" xlink:title="IVRangeSliderControl">
<polygon fill="white" stroke="black" points="296,-0.5 296,-19.5 413,-19.5 413,-0.5 296,-0.5"/>
<text text-anchor="middle" x="354.5" y="-7.5" font-family="Helvetica,sans-Serif" font-size="10.00">IVRangeSliderControl</text>
</a>
</g>
</g>
<!-- Node15&#45;&gt;Node18 -->
<g id="edge17" class="edge"><title>Node15&#45;&gt;Node18</title>
<path fill="none" stroke="midnightblue" d="M241.52,-89.2455C244.49,-87.6815 247.339,-85.9398 250,-84 273.607,-66.7888 262.442,-46.2782 286,-29 291.301,-25.112 297.369,-22.0189 303.645,-19.5583"/>
<polygon fill="midnightblue" stroke="midnightblue" points="239.973,-86.1038 232.314,-93.4242 242.867,-92.4779 239.973,-86.1038"/>
</g>
</g>
</svg>
