<?xml version="1.0" encoding="UTF-8" standalone="no"?>
<!DOCTYPE svg PUBLIC "-//W3C//DTD SVG 1.1//EN"
 "http://www.w3.org/Graphics/SVG/1.1/DTD/svg11.dtd">
<!-- Generated by graphviz version 2.38.0 (20140413.2041)
 -->
<!-- Title: IPlugVST2 Pages: 1 -->
<svg width="260pt" height="263pt"
 viewBox="0.00 0.00 260.00 263.00" xmlns="http://www.w3.org/2000/svg" xmlns:xlink="http://www.w3.org/1999/xlink">
<g id="graph0" class="graph" transform="scale(1 1) rotate(0) translate(4 259)">
<title>IPlugVST2</title>
<polygon fill="white" stroke="none" points="-4,4 -4,-259 256,-259 256,4 -4,4"/>
<!-- Node1 -->
<g id="node1" class="node"><title>Node1</title>
<polygon fill="#bfbfbf" stroke="black" points="98.5,-56.5 98.5,-75.5 162.5,-75.5 162.5,-56.5 98.5,-56.5"/>
<text text-anchor="middle" x="130.5" y="-63.5" font-family="Helvetica,sans-Serif" font-size="10.00">IPlugVST2</text>
</g>
<!-- Node6 -->
<g id="node6" class="node"><title>Node6</title>
<g id="a_node6"><a xlink:href="class_i_plug_reaper_v_s_t2.html" target="_top" xlink:title="Reaper specific VST2.4 API base class for an IPlug plug&#45;in. ">
<polygon fill="white" stroke="black" points="82,-0.5 82,-19.5 179,-19.5 179,-0.5 82,-0.5"/>
<text text-anchor="middle" x="130.5" y="-7.5" font-family="Helvetica,sans-Serif" font-size="10.00">IPlugReaperVST2</text>
</a>
</g>
</g>
<!-- Node1&#45;&gt;Node6 -->
<g id="edge5" class="edge"><title>Node1&#45;&gt;Node6</title>
<path fill="none" stroke="midnightblue" d="M130.5,-45.8045C130.5,-36.9102 130.5,-26.7798 130.5,-19.7511"/>
<polygon fill="midnightblue" stroke="midnightblue" points="127,-46.083 130.5,-56.083 134,-46.083 127,-46.083"/>
</g>
<!-- Node2 -->
<g id="node2" class="node"><title>Node2</title>
<g id="a_node2"><a xlink:href="class_i_plug_a_p_i_base.html" target="_top" xlink:title="The base class of an IPlug plug&#45;in, which interacts with the different plug&#45;in APIs. ">
<polygon fill="white" stroke="black" points="32.5,-118 32.5,-137 110.5,-137 110.5,-118 32.5,-118"/>
<text text-anchor="middle" x="71.5" y="-125" font-family="Helvetica,sans-Serif" font-size="10.00">IPlugAPIBase</text>
</a>
</g>
</g>
<!-- Node2&#45;&gt;Node1 -->
<g id="edge1" class="edge"><title>Node2&#45;&gt;Node1</title>
<path fill="none" stroke="midnightblue" d="M87.0437,-110.825C98.2531,-99.5202 112.956,-84.6928 122.062,-75.5091"/>
<polygon fill="midnightblue" stroke="midnightblue" points="84.5092,-108.41 79.9533,-117.975 89.4798,-113.339 84.5092,-108.41"/>
</g>
<!-- Node3 -->
<g id="node3" class="node"><title>Node3</title>
<g id="a_node3"><a xlink:href="class_i_plugin_base.html" target="_top" xlink:title="Base class that contains plug&#45;in info and state manipulation methods. ">
<polygon fill="white" stroke="black" points="36,-179.5 36,-198.5 107,-198.5 107,-179.5 36,-179.5"/>
<text text-anchor="middle" x="71.5" y="-186.5" font-family="Helvetica,sans-Serif" font-size="10.00">IPluginBase</text>
</a>
</g>
</g>
<!-- Node3&#45;&gt;Node2 -->
<g id="edge2" class="edge"><title>Node3&#45;&gt;Node2</title>
<path fill="none" stroke="midnightblue" d="M71.5,-169.317C71.5,-158.496 71.5,-145.398 71.5,-137.009"/>
<polygon fill="midnightblue" stroke="midnightblue" points="68.0001,-169.475 71.5,-179.475 75.0001,-169.475 68.0001,-169.475"/>
</g>
<!-- Node4 -->
<g id="node4" class="node"><title>Node4</title>
<g id="a_node4"><a xlink:href="class_i_editor_delegate.html" target="_top" xlink:title="This pure virtual interface delegates communication in both directions between a UI editor and someth...">
<polygon fill="white" stroke="black" points="0,-235.5 0,-254.5 143,-254.5 143,-235.5 0,-235.5"/>
<text text-anchor="middle" x="71.5" y="-242.5" font-family="Helvetica,sans-Serif" font-size="10.00">EDITOR_DELEGATE_CLASS</text>
</a>
</g>
</g>
<!-- Node4&#45;&gt;Node3 -->
<g id="edge3" class="edge"><title>Node4&#45;&gt;Node3</title>
<path fill="none" stroke="midnightblue" d="M71.5,-224.805C71.5,-215.91 71.5,-205.78 71.5,-198.751"/>
<polygon fill="midnightblue" stroke="midnightblue" points="68.0001,-225.083 71.5,-235.083 75.0001,-225.083 68.0001,-225.083"/>
</g>
<!-- Node5 -->
<g id="node5" class="node"><title>Node5</title>
<g id="a_node5"><a xlink:href="class_i_plug_processor.html" target="_top" xlink:title="IPlugProcessor\&lt; PLUG\l_SAMPLE_DST \&gt;">
<polygon fill="white" stroke="black" points="129,-112.5 129,-142.5 252,-142.5 252,-112.5 129,-112.5"/>
<text text-anchor="start" x="137" y="-130.5" font-family="Helvetica,sans-Serif" font-size="10.00">IPlugProcessor&lt; PLUG</text>
<text text-anchor="middle" x="190.5" y="-119.5" font-family="Helvetica,sans-Serif" font-size="10.00">_SAMPLE_DST &gt;</text>
</a>
</g>
</g>
<!-- Node5&#45;&gt;Node1 -->
<g id="edge4" class="edge"><title>Node5&#45;&gt;Node1</title>
<path fill="none" stroke="midnightblue" d="M169.122,-105.3C158.824,-95.0881 147.045,-83.4072 139.231,-75.6578"/>
<polygon fill="midnightblue" stroke="midnightblue" points="166.716,-107.843 176.281,-112.399 171.645,-102.873 166.716,-107.843"/>
</g>
</g>
</svg>
