<?xml version="1.0" encoding="UTF-8" standalone="no"?>
<!DOCTYPE svg PUBLIC "-//W3C//DTD SVG 1.1//EN"
 "http://www.w3.org/Graphics/SVG/1.1/DTD/svg11.dtd">
<!-- Generated by graphviz version 2.38.0 (20140413.2041)
 -->
<!-- Title: PlatformFont Pages: 1 -->
<svg width="235pt" height="140pt"
 viewBox="0.00 0.00 234.50 140.00" xmlns="http://www.w3.org/2000/svg" xmlns:xlink="http://www.w3.org/1999/xlink">
<g id="graph0" class="graph" transform="scale(1 1) rotate(0) translate(4 136)">
<title>PlatformFont</title>
<polygon fill="white" stroke="none" points="-4,4 -4,-136 230.5,-136 230.5,4 -4,4"/>
<!-- Node1 -->
<g id="node1" class="node"><title>Node1</title>
<polygon fill="#bfbfbf" stroke="black" points="86.5,-112.5 86.5,-131.5 164.5,-131.5 164.5,-112.5 86.5,-112.5"/>
<text text-anchor="middle" x="125.5" y="-119.5" font-family="Helvetica,sans-Serif" font-size="10.00">PlatformFont</text>
</g>
<!-- Node2 -->
<g id="node2" class="node"><title>Node2</title>
<g id="a_node2"><a xlink:href="class_core_text_font.html" target="_top" xlink:title="CoreTextFont">
<polygon fill="white" stroke="black" points="-7.10543e-15,-56.5 -7.10543e-15,-75.5 79,-75.5 79,-56.5 -7.10543e-15,-56.5"/>
<text text-anchor="middle" x="39.5" y="-63.5" font-family="Helvetica,sans-Serif" font-size="10.00">CoreTextFont</text>
</a>
</g>
</g>
<!-- Node1&#45;&gt;Node2 -->
<g id="edge1" class="edge"><title>Node1&#45;&gt;Node2</title>
<path fill="none" stroke="midnightblue" d="M103.045,-106.901C87.2756,-96.9986 66.6864,-84.0705 53.2831,-75.6545"/>
<polygon fill="midnightblue" stroke="midnightblue" points="101.352,-109.97 111.683,-112.324 105.075,-104.042 101.352,-109.97"/>
</g>
<!-- Node3 -->
<g id="node3" class="node"><title>Node3</title>
<g id="a_node3"><a xlink:href="class_web_font.html" target="_top" xlink:title="WebFont">
<polygon fill="white" stroke="black" points="97,-56.5 97,-75.5 154,-75.5 154,-56.5 97,-56.5"/>
<text text-anchor="middle" x="125.5" y="-63.5" font-family="Helvetica,sans-Serif" font-size="10.00">WebFont</text>
</a>
</g>
</g>
<!-- Node1&#45;&gt;Node3 -->
<g id="edge2" class="edge"><title>Node1&#45;&gt;Node3</title>
<path fill="none" stroke="midnightblue" d="M125.5,-101.805C125.5,-92.9102 125.5,-82.7798 125.5,-75.7511"/>
<polygon fill="midnightblue" stroke="midnightblue" points="122,-102.083 125.5,-112.083 129,-102.083 122,-102.083"/>
</g>
<!-- Node5 -->
<g id="node5" class="node"><title>Node5</title>
<g id="a_node5"><a xlink:href="class_win_font.html" target="_top" xlink:title="WinFont">
<polygon fill="white" stroke="black" points="172.5,-56.5 172.5,-75.5 226.5,-75.5 226.5,-56.5 172.5,-56.5"/>
<text text-anchor="middle" x="199.5" y="-63.5" font-family="Helvetica,sans-Serif" font-size="10.00">WinFont</text>
</a>
</g>
</g>
<!-- Node1&#45;&gt;Node5 -->
<g id="edge4" class="edge"><title>Node1&#45;&gt;Node5</title>
<path fill="none" stroke="midnightblue" d="M145.534,-106.38C158.909,-96.6204 176.059,-84.1057 187.394,-75.8339"/>
<polygon fill="midnightblue" stroke="midnightblue" points="143.404,-103.602 137.389,-112.324 147.53,-109.257 143.404,-103.602"/>
</g>
<!-- Node4 -->
<g id="node4" class="node"><title>Node4</title>
<g id="a_node4"><a xlink:href="class_web_file_font.html" target="_top" xlink:title="WebFileFont">
<polygon fill="white" stroke="black" points="89.5,-0.5 89.5,-19.5 161.5,-19.5 161.5,-0.5 89.5,-0.5"/>
<text text-anchor="middle" x="125.5" y="-7.5" font-family="Helvetica,sans-Serif" font-size="10.00">WebFileFont</text>
</a>
</g>
</g>
<!-- Node3&#45;&gt;Node4 -->
<g id="edge3" class="edge"><title>Node3&#45;&gt;Node4</title>
<path fill="none" stroke="midnightblue" d="M125.5,-45.8045C125.5,-36.9102 125.5,-26.7798 125.5,-19.7511"/>
<polygon fill="midnightblue" stroke="midnightblue" points="122,-46.083 125.5,-56.083 129,-46.083 122,-46.083"/>
</g>
</g>
</svg>
