<?xml version="1.0" encoding="UTF-8" standalone="no"?>
<!DOCTYPE svg PUBLIC "-//W3C//DTD SVG 1.1//EN"
 "http://www.w3.org/Graphics/SVG/1.1/DTD/svg11.dtd">
<!-- Generated by graphviz version 2.38.0 (20140413.2041)
 -->
<!-- Title: ITextControl Pages: 1 -->
<svg width="315pt" height="218pt"
 viewBox="0.00 0.00 315.00 218.00" xmlns="http://www.w3.org/2000/svg" xmlns:xlink="http://www.w3.org/1999/xlink">
<g id="graph0" class="graph" transform="scale(1 1) rotate(0) translate(4 214)">
<title>ITextControl</title>
<polygon fill="white" stroke="none" points="-4,4 -4,-214 311,-214 311,4 -4,4"/>
<!-- Node1 -->
<g id="node1" class="node"><title>Node1</title>
<polygon fill="#bfbfbf" stroke="black" points="89,-95.5 89,-114.5 161,-114.5 161,-95.5 89,-95.5"/>
<text text-anchor="middle" x="125" y="-102.5" font-family="Helvetica,sans-Serif" font-size="10.00">ITextControl</text>
</g>
<!-- Node3 -->
<g id="node3" class="node"><title>Node3</title>
<g id="a_node3"><a xlink:href="class_i_b_text_control.html" target="_top" xlink:title="A control to display text using a monospace bitmap font. ">
<polygon fill="white" stroke="black" points="212.5,-190.5 212.5,-209.5 291.5,-209.5 291.5,-190.5 212.5,-190.5"/>
<text text-anchor="middle" x="252" y="-197.5" font-family="Helvetica,sans-Serif" font-size="10.00">IBTextControl</text>
</a>
</g>
</g>
<!-- Node1&#45;&gt;Node3 -->
<g id="edge2" class="edge"><title>Node1&#45;&gt;Node3</title>
<path fill="none" stroke="midnightblue" d="M138.803,-123.095C151.73,-140.171 173.152,-165.414 197,-181 202.74,-184.752 209.309,-187.861 215.843,-190.402"/>
<polygon fill="midnightblue" stroke="midnightblue" points="141.275,-120.548 132.533,-114.561 135.634,-124.693 141.275,-120.548"/>
</g>
<!-- Node4 -->
<g id="node4" class="node"><title>Node4</title>
<g id="a_node4"><a xlink:href="class_i_caption_control.html" target="_top" xlink:title="A control to display the textual representation of a parameter. ">
<polygon fill="white" stroke="black" points="207,-152.5 207,-171.5 297,-171.5 297,-152.5 207,-152.5"/>
<text text-anchor="middle" x="252" y="-159.5" font-family="Helvetica,sans-Serif" font-size="10.00">ICaptionControl</text>
</a>
</g>
</g>
<!-- Node1&#45;&gt;Node4 -->
<g id="edge3" class="edge"><title>Node1&#45;&gt;Node4</title>
<path fill="none" stroke="midnightblue" d="M151.326,-119.775C164.67,-127.245 181.453,-136.153 197,-143 204.731,-146.405 213.281,-149.644 221.255,-152.451"/>
<polygon fill="midnightblue" stroke="midnightblue" points="152.708,-116.535 142.284,-114.64 149.251,-122.621 152.708,-116.535"/>
</g>
<!-- Node5 -->
<g id="node5" class="node"><title>Node5</title>
<g id="a_node5"><a xlink:href="class_i_r_t_text_control.html" target="_top" xlink:title="A control to display some text in the UI, driven by values in the RT audio thread. ">
<polygon fill="white" stroke="black" points="197,-114.5 197,-133.5 307,-133.5 307,-114.5 197,-114.5"/>
<text text-anchor="middle" x="252" y="-121.5" font-family="Helvetica,sans-Serif" font-size="10.00">IRTTextControl&lt; T &gt;</text>
</a>
</g>
</g>
<!-- Node1&#45;&gt;Node5 -->
<g id="edge4" class="edge"><title>Node1&#45;&gt;Node5</title>
<path fill="none" stroke="midnightblue" d="M171.111,-111.857C179.497,-113.132 188.337,-114.475 196.958,-115.786"/>
<polygon fill="midnightblue" stroke="midnightblue" points="171.565,-108.386 161.152,-110.343 170.513,-115.306 171.565,-108.386"/>
</g>
<!-- Node6 -->
<g id="node6" class="node"><title>Node6</title>
<g id="a_node6"><a xlink:href="class_i_text_toggle_control.html" target="_top" xlink:title="ITextToggleControl">
<polygon fill="white" stroke="black" points="201,-76.5 201,-95.5 303,-95.5 303,-76.5 201,-76.5"/>
<text text-anchor="middle" x="252" y="-83.5" font-family="Helvetica,sans-Serif" font-size="10.00">ITextToggleControl</text>
</a>
</g>
</g>
<!-- Node1&#45;&gt;Node6 -->
<g id="edge5" class="edge"><title>Node1&#45;&gt;Node6</title>
<path fill="none" stroke="midnightblue" d="M171.258,-98.1207C180.827,-96.6663 190.981,-95.123 200.722,-93.6423"/>
<polygon fill="midnightblue" stroke="midnightblue" points="170.513,-94.6938 161.152,-99.6569 171.565,-101.614 170.513,-94.6938"/>
</g>
<!-- Node7 -->
<g id="node7" class="node"><title>Node7</title>
<g id="a_node7"><a xlink:href="class_i_u_r_l_control.html" target="_top" xlink:title="IURLControl">
<polygon fill="white" stroke="black" points="216,-38.5 216,-57.5 288,-57.5 288,-38.5 216,-38.5"/>
<text text-anchor="middle" x="252" y="-45.5" font-family="Helvetica,sans-Serif" font-size="10.00">IURLControl</text>
</a>
</g>
</g>
<!-- Node1&#45;&gt;Node7 -->
<g id="edge6" class="edge"><title>Node1&#45;&gt;Node7</title>
<path fill="none" stroke="midnightblue" d="M151.326,-90.2253C164.67,-82.7553 181.453,-73.8473 197,-67 204.731,-63.595 213.281,-60.3565 221.255,-57.5493"/>
<polygon fill="midnightblue" stroke="midnightblue" points="149.251,-87.3785 142.284,-95.3605 152.708,-93.4653 149.251,-87.3785"/>
</g>
<!-- Node8 -->
<g id="node8" class="node"><title>Node8</title>
<g id="a_node8"><a xlink:href="class_i_v_label_control.html" target="_top" xlink:title="IVLabelControl">
<polygon fill="white" stroke="black" points="209,-0.5 209,-19.5 295,-19.5 295,-0.5 209,-0.5"/>
<text text-anchor="middle" x="252" y="-7.5" font-family="Helvetica,sans-Serif" font-size="10.00">IVLabelControl</text>
</a>
</g>
</g>
<!-- Node1&#45;&gt;Node8 -->
<g id="edge7" class="edge"><title>Node1&#45;&gt;Node8</title>
<path fill="none" stroke="midnightblue" d="M138.803,-86.9054C151.73,-69.8294 173.152,-44.5858 197,-29 202.74,-25.2485 209.309,-22.139 215.843,-19.5979"/>
<polygon fill="midnightblue" stroke="midnightblue" points="135.634,-85.3075 132.533,-95.4386 141.275,-89.452 135.634,-85.3075"/>
</g>
<!-- Node2 -->
<g id="node2" class="node"><title>Node2</title>
<g id="a_node2"><a xlink:href="class_i_control.html" target="_top" xlink:title="The lowest level base class of an IGraphics control. ">
<polygon fill="white" stroke="black" points="0,-95.5 0,-114.5 53,-114.5 53,-95.5 0,-95.5"/>
<text text-anchor="middle" x="26.5" y="-102.5" font-family="Helvetica,sans-Serif" font-size="10.00">IControl</text>
</a>
</g>
</g>
<!-- Node2&#45;&gt;Node1 -->
<g id="edge1" class="edge"><title>Node2&#45;&gt;Node1</title>
<path fill="none" stroke="midnightblue" d="M63.3032,-105C71.6426,-105 80.5145,-105 88.8264,-105"/>
<polygon fill="midnightblue" stroke="midnightblue" points="63.1069,-101.5 53.1069,-105 63.1068,-108.5 63.1069,-101.5"/>
</g>
</g>
</svg>
