<?xml version="1.0" encoding="UTF-8" standalone="no"?>
<!DOCTYPE svg PUBLIC "-//W3C//DTD SVG 1.1//EN"
 "http://www.w3.org/Graphics/SVG/1.1/DTD/svg11.dtd">
<!-- Generated by graphviz version 2.38.0 (20140413.2041)
 -->
<!-- Title: IFontData Pages: 1 -->
<svg width="224pt" height="95pt"
 viewBox="0.00 0.00 223.50 95.00" xmlns="http://www.w3.org/2000/svg" xmlns:xlink="http://www.w3.org/1999/xlink">
<g id="graph0" class="graph" transform="scale(1 1) rotate(0) translate(4 91)">
<title>IFontData</title>
<polygon fill="white" stroke="none" points="-4,4 -4,-91 219.5,-91 219.5,4 -4,4"/>
<!-- Node1 -->
<g id="node1" class="node"><title>Node1</title>
<polygon fill="#bfbfbf" stroke="black" points="55,-0.5 55,-19.5 118,-19.5 118,-0.5 55,-0.5"/>
<text text-anchor="middle" x="86.5" y="-7.5" font-family="Helvetica,sans-Serif" font-size="10.00">IFontData</text>
</g>
<!-- Node2 -->
<g id="node2" class="node"><title>Node2</title>
<g id="a_node2"><a xlink:href="class_i_font_info.html" target="_top" xlink:title="Used to retrieve font info directly from a raw memory buffer. ">
<polygon fill="white" stroke="black" points="0,-62 0,-81 57,-81 57,-62 0,-62"/>
<text text-anchor="middle" x="28.5" y="-69" font-family="Helvetica,sans-Serif" font-size="10.00">IFontInfo</text>
</a>
</g>
</g>
<!-- Node2&#45;&gt;Node1 -->
<g id="edge1" class="edge"><title>Node2&#45;&gt;Node1</title>
<path fill="none" stroke="midnightblue" d="M44.0991,-54.4975C55.0771,-43.2356 69.3394,-28.6044 78.2054,-19.5091"/>
<polygon fill="midnightblue" stroke="midnightblue" points="41.284,-52.3712 36.81,-61.9751 46.2965,-57.2574 41.284,-52.3712"/>
</g>
<!-- Node3 -->
<g id="node3" class="node"><title>Node3</title>
<polygon fill="white" stroke="#bfbfbf" points="75.5,-56.5 75.5,-86.5 215.5,-86.5 215.5,-56.5 75.5,-56.5"/>
<text text-anchor="start" x="83.5" y="-74.5" font-family="Helvetica,sans-Serif" font-size="10.00">WDL_TypedBuf&lt; unsigned</text>
<text text-anchor="middle" x="145.5" y="-63.5" font-family="Helvetica,sans-Serif" font-size="10.00"> char &gt;</text>
</g>
<!-- Node3&#45;&gt;Node1 -->
<g id="edge2" class="edge"><title>Node3&#45;&gt;Node1</title>
<path fill="none" stroke="#8b1a1a" d="M124.183,-49.0023C114.128,-38.8617 102.695,-27.3319 95.085,-19.6578"/>
<polygon fill="#8b1a1a" stroke="#8b1a1a" points="121.991,-51.7629 131.518,-56.3993 126.962,-46.834 121.991,-51.7629"/>
</g>
</g>
</svg>
