<?xml version="1.0" encoding="UTF-8" standalone="no"?>
<!DOCTYPE svg PUBLIC "-//W3C//DTD SVG 1.1//EN"
 "http://www.w3.org/Graphics/SVG/1.1/DTD/svg11.dtd">
<!-- Generated by graphviz version 2.38.0 (20140413.2041)
 -->
<!-- Title: Graphical Class Hierarchy Pages: 1 -->
<svg width="193pt" height="66pt"
 viewBox="0.00 0.00 193.00 66.00" xmlns="http://www.w3.org/2000/svg" xmlns:xlink="http://www.w3.org/1999/xlink">
<g id="graph0" class="graph" transform="scale(1 1) rotate(0) translate(4 62)">
<title>Graphical Class Hierarchy</title>
<polygon fill="white" stroke="none" points="-4,4 -4,-62 189,-62 189,4 -4,4"/>
<!-- Node1 -->
<g id="node1" class="node"><title>Node1</title>
<g id="a_node1"><a xlink:href="class_i_font_info.html" target="_top" xlink:title="Used to retrieve font info directly from a raw memory buffer. ">
<polygon fill="white" stroke="black" points="14.5,-38.5 14.5,-57.5 71.5,-57.5 71.5,-38.5 14.5,-38.5"/>
<text text-anchor="middle" x="43" y="-45.5" font-family="Helvetica,sans-Serif" font-size="10.00">IFontInfo</text>
</a>
</g>
</g>
<!-- Node2 -->
<g id="node2" class="node"><title>Node2</title>
<g id="a_node2"><a xlink:href="class_i_font_data.html" target="_top" xlink:title="Used to manage raw font data. ">
<polygon fill="white" stroke="black" points="122,-19.5 122,-38.5 185,-38.5 185,-19.5 122,-19.5"/>
<text text-anchor="middle" x="153.5" y="-26.5" font-family="Helvetica,sans-Serif" font-size="10.00">IFontData</text>
</a>
</g>
</g>
<!-- Node1&#45;&gt;Node2 -->
<g id="edge1" class="edge"><title>Node1&#45;&gt;Node2</title>
<path fill="none" stroke="midnightblue" d="M81.7896,-41.3825C94.8809,-39.09 109.385,-36.5501 121.832,-34.3704"/>
<polygon fill="midnightblue" stroke="midnightblue" points="80.9062,-37.9838 71.6599,-43.1563 82.1137,-44.8789 80.9062,-37.9838"/>
</g>
<!-- Node3 -->
<g id="node3" class="node"><title>Node3</title>
<polygon fill="white" stroke="#bfbfbf" points="0,-0.5 0,-19.5 86,-19.5 86,-0.5 0,-0.5"/>
<text text-anchor="middle" x="43" y="-7.5" font-family="Helvetica,sans-Serif" font-size="10.00">WDL_TypedBuf</text>
</g>
<!-- Node3&#45;&gt;Node2 -->
<g id="edge2" class="edge"><title>Node3&#45;&gt;Node2</title>
<path fill="none" stroke="#8b1a1a" d="M96.1533,-19.1328C104.989,-20.68 113.898,-22.2402 121.943,-23.649"/>
<polygon fill="#8b1a1a" stroke="#8b1a1a" points="96.7135,-15.6777 86.2596,-17.4003 95.506,-22.5728 96.7135,-15.6777"/>
</g>
</g>
</svg>
