<?xml version="1.0" encoding="UTF-8" standalone="no"?>
<!DOCTYPE svg PUBLIC "-//W3C//DTD SVG 1.1//EN"
 "http://www.w3.org/Graphics/SVG/1.1/DTD/svg11.dtd">
<!-- Generated by graphviz version 2.38.0 (20140413.2041)
 -->
<!-- Title: Graphical Class Hierarchy Pages: 1 -->
<svg width="716pt" height="579pt"
 viewBox="0.00 0.00 716.00 579.00" xmlns="http://www.w3.org/2000/svg" xmlns:xlink="http://www.w3.org/1999/xlink">
<g id="graph0" class="graph" transform="scale(1 1) rotate(0) translate(4 575)">
<title>Graphical Class Hierarchy</title>
<polygon fill="white" stroke="none" points="-4,4 -4,-575 712,-575 712,4 -4,4"/>
<!-- Node1 -->
<g id="node1" class="node"><title>Node1</title>
<polygon fill="white" stroke="#bfbfbf" points="262,-551.5 262,-570.5 388,-570.5 388,-551.5 262,-551.5"/>
<text text-anchor="middle" x="325" y="-558.5" font-family="Helvetica,sans-Serif" font-size="10.00">AAX_CIPlugParameters</text>
</g>
<!-- Node2 -->
<g id="node2" class="node"><title>Node2</title>
<g id="a_node2"><a xlink:href="class_i_plug_a_a_x.html" target="_top" xlink:title="AAX API base class for an IPlug plug&#45;in. ">
<polygon fill="white" stroke="black" points="464,-551.5 464,-570.5 523,-570.5 523,-551.5 464,-551.5"/>
<text text-anchor="middle" x="493.5" y="-558.5" font-family="Helvetica,sans-Serif" font-size="10.00">IPlugAAX</text>
</a>
</g>
</g>
<!-- Node1&#45;&gt;Node2 -->
<g id="edge1" class="edge"><title>Node1&#45;&gt;Node2</title>
<path fill="none" stroke="midnightblue" d="M398.583,-561C421.573,-561 445.667,-561 463.694,-561"/>
<polygon fill="midnightblue" stroke="midnightblue" points="398.472,-557.5 388.472,-561 398.472,-564.5 398.472,-557.5"/>
</g>
<!-- Node3 -->
<g id="node3" class="node"><title>Node3</title>
<polygon fill="white" stroke="#bfbfbf" points="458,-513.5 458,-532.5 529,-532.5 529,-513.5 458,-513.5"/>
<text text-anchor="middle" x="493.5" y="-520.5" font-family="Helvetica,sans-Serif" font-size="10.00">AudioEffect</text>
</g>
<!-- Node4 -->
<g id="node4" class="node"><title>Node4</title>
<g id="a_node4"><a xlink:href="class_i_plug_v_s_t3_processor.html" target="_top" xlink:title="VST3 Processor API&#45;base class for a distributed IPlug VST3 plug&#45;in. ">
<polygon fill="white" stroke="black" points="597,-475.5 597,-494.5 708,-494.5 708,-475.5 597,-475.5"/>
<text text-anchor="middle" x="652.5" y="-482.5" font-family="Helvetica,sans-Serif" font-size="10.00">IPlugVST3Processor</text>
</a>
</g>
</g>
<!-- Node3&#45;&gt;Node4 -->
<g id="edge2" class="edge"><title>Node3&#45;&gt;Node4</title>
<path fill="none" stroke="midnightblue" d="M539.192,-512.183C562.156,-506.625 589.893,-499.911 612.056,-494.547"/>
<polygon fill="midnightblue" stroke="midnightblue" points="538.239,-508.812 529.343,-514.567 539.886,-515.616 538.239,-508.812"/>
</g>
<!-- Node5 -->
<g id="node5" class="node"><title>Node5</title>
<polygon fill="white" stroke="#bfbfbf" points="444.5,-95.5 444.5,-114.5 542.5,-114.5 542.5,-95.5 444.5,-95.5"/>
<text text-anchor="middle" x="493.5" y="-102.5" font-family="Helvetica,sans-Serif" font-size="10.00">EditControllerEx1</text>
</g>
<!-- Node6 -->
<g id="node6" class="node"><title>Node6</title>
<g id="a_node6"><a xlink:href="class_i_plug_v_s_t3_controller.html" target="_top" xlink:title="VST3 Controller API&#45;base class for a distributed IPlug VST3 plug&#45;in. ">
<polygon fill="white" stroke="black" points="597.5,-114.5 597.5,-133.5 707.5,-133.5 707.5,-114.5 597.5,-114.5"/>
<text text-anchor="middle" x="652.5" y="-121.5" font-family="Helvetica,sans-Serif" font-size="10.00">IPlugVST3Controller</text>
</a>
</g>
</g>
<!-- Node5&#45;&gt;Node6 -->
<g id="edge3" class="edge"><title>Node5&#45;&gt;Node6</title>
<path fill="none" stroke="midnightblue" d="M553.199,-112.104C567.637,-113.851 583.03,-115.714 597.247,-117.434"/>
<polygon fill="midnightblue" stroke="midnightblue" points="553.234,-108.583 542.886,-110.856 552.393,-115.532 553.234,-108.583"/>
</g>
<!-- Node7 -->
<g id="node7" class="node"><title>Node7</title>
<g id="a_node7"><a xlink:href="class_i_editor_delegate.html" target="_top" xlink:title="This pure virtual interface delegates communication in both directions between a UI editor and someth...">
<polygon fill="white" stroke="black" points="0,-285.5 0,-304.5 90,-304.5 90,-285.5 0,-285.5"/>
<text text-anchor="middle" x="45" y="-292.5" font-family="Helvetica,sans-Serif" font-size="10.00">IEditorDelegate</text>
</a>
</g>
</g>
<!-- Node8 -->
<g id="node8" class="node"><title>Node8</title>
<g id="a_node8"><a xlink:href="class_i_g_editor_delegate.html" target="_top" xlink:title="An editor delegate base class for a SOMETHING that uses IGraphics for it&#39;s UI. ">
<polygon fill="white" stroke="black" points="126,-285.5 126,-304.5 224,-304.5 224,-285.5 126,-285.5"/>
<text text-anchor="middle" x="175" y="-292.5" font-family="Helvetica,sans-Serif" font-size="10.00">IGEditorDelegate</text>
</a>
</g>
</g>
<!-- Node7&#45;&gt;Node8 -->
<g id="edge4" class="edge"><title>Node7&#45;&gt;Node8</title>
<path fill="none" stroke="midnightblue" d="M100.285,-295C108.805,-295 117.56,-295 125.928,-295"/>
<polygon fill="midnightblue" stroke="midnightblue" points="100.05,-291.5 90.0503,-295 100.05,-298.5 100.05,-291.5"/>
</g>
<!-- Node9 -->
<g id="node9" class="node"><title>Node9</title>
<g id="a_node9"><a xlink:href="class_i_plugin_base.html" target="_top" xlink:title="Base class that contains plug&#45;in info and state manipulation methods. ">
<polygon fill="white" stroke="black" points="139.5,-323.5 139.5,-342.5 210.5,-342.5 210.5,-323.5 139.5,-323.5"/>
<text text-anchor="middle" x="175" y="-330.5" font-family="Helvetica,sans-Serif" font-size="10.00">IPluginBase</text>
</a>
</g>
</g>
<!-- Node7&#45;&gt;Node9 -->
<g id="edge5" class="edge"><title>Node7&#45;&gt;Node9</title>
<path fill="none" stroke="midnightblue" d="M88.2242,-307.535C105.637,-312.705 125.492,-318.599 141.711,-323.414"/>
<polygon fill="midnightblue" stroke="midnightblue" points="88.8824,-304.08 78.2998,-304.589 86.8902,-310.79 88.8824,-304.08"/>
</g>
<!-- Node18 -->
<g id="node18" class="node"><title>Node18</title>
<g id="a_node18"><a xlink:href="class_reaper_ext_base.html" target="_top" xlink:title="ReaperExtBase">
<polygon fill="white" stroke="black" points="130.5,-247.5 130.5,-266.5 219.5,-266.5 219.5,-247.5 130.5,-247.5"/>
<text text-anchor="middle" x="175" y="-254.5" font-family="Helvetica,sans-Serif" font-size="10.00">ReaperExtBase</text>
</a>
</g>
</g>
<!-- Node7&#45;&gt;Node18 -->
<g id="edge17" class="edge"><title>Node7&#45;&gt;Node18</title>
<path fill="none" stroke="midnightblue" d="M88.2242,-282.465C105.637,-277.295 125.492,-271.401 141.711,-266.586"/>
<polygon fill="midnightblue" stroke="midnightblue" points="86.8902,-279.21 78.2998,-285.411 88.8824,-285.92 86.8902,-279.21"/>
</g>
<!-- Node10 -->
<g id="node10" class="node"><title>Node10</title>
<g id="a_node10"><a xlink:href="class_i_plug_a_p_i_base.html" target="_top" xlink:title="The base class of an IPlug plug&#45;in, which interacts with the different plug&#45;in APIs. ">
<polygon fill="white" stroke="black" points="286,-323.5 286,-342.5 364,-342.5 364,-323.5 286,-323.5"/>
<text text-anchor="middle" x="325" y="-330.5" font-family="Helvetica,sans-Serif" font-size="10.00">IPlugAPIBase</text>
</a>
</g>
</g>
<!-- Node9&#45;&gt;Node10 -->
<g id="edge6" class="edge"><title>Node9&#45;&gt;Node10</title>
<path fill="none" stroke="midnightblue" d="M220.87,-333C241.629,-333 266.027,-333 285.88,-333"/>
<polygon fill="midnightblue" stroke="midnightblue" points="220.699,-329.5 210.699,-333 220.699,-336.5 220.699,-329.5"/>
</g>
<!-- Node10&#45;&gt;Node2 -->
<g id="edge7" class="edge"><title>Node10&#45;&gt;Node2</title>
<path fill="none" stroke="midnightblue" d="M341.45,-350.947C355.761,-368.357 376.772,-396.028 390,-423 414.33,-472.611 386.627,-503.231 426,-542 436.01,-551.857 450.761,-556.672 463.828,-558.996"/>
<polygon fill="midnightblue" stroke="midnightblue" points="343.759,-348.253 334.654,-342.837 338.394,-352.749 343.759,-348.253"/>
</g>
<!-- Node10&#45;&gt;Node4 -->
<g id="edge14" class="edge"><title>Node10&#45;&gt;Node4</title>
<path fill="none" stroke="midnightblue" d="M374.184,-343.163C438.127,-356.882 544.868,-380.682 561,-390 599.661,-412.331 632.172,-456.155 645.287,-475.471"/>
<polygon fill="midnightblue" stroke="midnightblue" points="374.82,-339.72 364.309,-341.051 373.356,-346.565 374.82,-339.72"/>
</g>
<!-- Node10&#45;&gt;Node6 -->
<g id="edge13" class="edge"><title>Node10&#45;&gt;Node6</title>
<path fill="none" stroke="midnightblue" d="M327.007,-313.192C330.683,-264.442 347.688,-138.782 426,-86 493.325,-40.6237 596.985,-91.9919 635.968,-114.496"/>
<polygon fill="midnightblue" stroke="midnightblue" points="323.503,-313.154 326.356,-323.357 330.488,-313.602 323.503,-313.154"/>
</g>
<!-- Node11 -->
<g id="node11" class="node"><title>Node11</title>
<g id="a_node11"><a xlink:href="class_i_plug_a_p_p.html" target="_top" xlink:title="Standalone application base class for an IPlug plug&#45;in. ">
<polygon fill="white" stroke="black" points="464.5,-399.5 464.5,-418.5 522.5,-418.5 522.5,-399.5 464.5,-399.5"/>
<text text-anchor="middle" x="493.5" y="-406.5" font-family="Helvetica,sans-Serif" font-size="10.00">IPlugAPP</text>
</a>
</g>
</g>
<!-- Node10&#45;&gt;Node11 -->
<g id="edge8" class="edge"><title>Node10&#45;&gt;Node11</title>
<path fill="none" stroke="midnightblue" d="M351.427,-347.422C371.369,-358.437 400.006,-373.611 426,-385 438.367,-390.418 452.384,-395.611 464.349,-399.772"/>
<polygon fill="midnightblue" stroke="midnightblue" points="353.09,-344.342 342.651,-342.533 349.684,-350.457 353.09,-344.342"/>
</g>
<!-- Node12 -->
<g id="node12" class="node"><title>Node12</title>
<g id="a_node12"><a xlink:href="class_i_plug_a_u.html" target="_top" xlink:title="AudioUnit v2 API base class for an IPlug plug&#45;in. ">
<polygon fill="white" stroke="black" points="467,-437.5 467,-456.5 520,-456.5 520,-437.5 467,-437.5"/>
<text text-anchor="middle" x="493.5" y="-444.5" font-family="Helvetica,sans-Serif" font-size="10.00">IPlugAU</text>
</a>
</g>
</g>
<!-- Node10&#45;&gt;Node12 -->
<g id="edge9" class="edge"><title>Node10&#45;&gt;Node12</title>
<path fill="none" stroke="midnightblue" d="M339.873,-350.602C357.623,-371.963 390.364,-407.642 426,-428 438.511,-435.147 453.905,-439.769 466.73,-442.662"/>
<polygon fill="midnightblue" stroke="midnightblue" points="342.445,-348.218 333.421,-342.666 337.013,-352.633 342.445,-348.218"/>
</g>
<!-- Node13 -->
<g id="node13" class="node"><title>Node13</title>
<g id="a_node13"><a xlink:href="class_i_plug_v_s_t2.html" target="_top" xlink:title="VST2.4 API base class for an IPlug plug&#45;in. ">
<polygon fill="white" stroke="black" points="461.5,-323.5 461.5,-342.5 525.5,-342.5 525.5,-323.5 461.5,-323.5"/>
<text text-anchor="middle" x="493.5" y="-330.5" font-family="Helvetica,sans-Serif" font-size="10.00">IPlugVST2</text>
</a>
</g>
</g>
<!-- Node10&#45;&gt;Node13 -->
<g id="edge10" class="edge"><title>Node10&#45;&gt;Node13</title>
<path fill="none" stroke="midnightblue" d="M374.226,-333C402.327,-333 436.939,-333 461.441,-333"/>
<polygon fill="midnightblue" stroke="midnightblue" points="374.198,-329.5 364.198,-333 374.198,-336.5 374.198,-329.5"/>
</g>
<!-- Node15 -->
<g id="node15" class="node"><title>Node15</title>
<g id="a_node15"><a xlink:href="class_i_plug_v_s_t3.html" target="_top" xlink:title="VST3 base class for a non&#45;distributed IPlug VST3 plug&#45;in. ">
<polygon fill="white" stroke="black" points="620.5,-266.5 620.5,-285.5 684.5,-285.5 684.5,-266.5 620.5,-266.5"/>
<text text-anchor="middle" x="652.5" y="-273.5" font-family="Helvetica,sans-Serif" font-size="10.00">IPlugVST3</text>
</a>
</g>
</g>
<!-- Node10&#45;&gt;Node15 -->
<g id="edge12" class="edge"><title>Node10&#45;&gt;Node15</title>
<path fill="none" stroke="midnightblue" d="M346.287,-317.194C365.563,-303.253 395.984,-283.954 426,-276 493.361,-258.15 576.068,-265.123 620.214,-271.029"/>
<polygon fill="midnightblue" stroke="midnightblue" points="343.949,-314.571 338.014,-323.348 348.127,-320.188 343.949,-314.571"/>
</g>
<!-- Node16 -->
<g id="node16" class="node"><title>Node16</title>
<g id="a_node16"><a xlink:href="class_i_plug_w_a_m.html" target="_top" xlink:title="WebAudioModule (WAM) API base class. ">
<polygon fill="white" stroke="black" points="462.5,-19.5 462.5,-38.5 524.5,-38.5 524.5,-19.5 462.5,-19.5"/>
<text text-anchor="middle" x="493.5" y="-26.5" font-family="Helvetica,sans-Serif" font-size="10.00">IPlugWAM</text>
</a>
</g>
</g>
<!-- Node10&#45;&gt;Node16 -->
<g id="edge15" class="edge"><title>Node10&#45;&gt;Node16</title>
<path fill="none" stroke="midnightblue" d="M327.429,-313.035C332.106,-262.451 351.29,-127.959 426,-53 435.704,-43.2633 449.646,-37.4525 462.26,-33.996"/>
<polygon fill="midnightblue" stroke="midnightblue" points="323.92,-313.005 326.581,-323.261 330.896,-313.584 323.92,-313.005"/>
</g>
<!-- Node17 -->
<g id="node17" class="node"><title>Node17</title>
<g id="a_node17"><a xlink:href="class_i_plug_web.html" target="_top" xlink:title="This is used for the UI &quot;editor&quot; &#45; controller side of a WAM or remote editors that communicate with d...">
<polygon fill="white" stroke="black" points="464,-171.5 464,-190.5 523,-190.5 523,-171.5 464,-171.5"/>
<text text-anchor="middle" x="493.5" y="-178.5" font-family="Helvetica,sans-Serif" font-size="10.00">IPlugWeb</text>
</a>
</g>
</g>
<!-- Node10&#45;&gt;Node17 -->
<g id="edge16" class="edge"><title>Node10&#45;&gt;Node17</title>
<path fill="none" stroke="midnightblue" d="M335.036,-314.208C349.919,-285.27 382.343,-230.009 426,-200 437.181,-192.314 451.448,-187.712 463.899,-184.968"/>
<polygon fill="midnightblue" stroke="midnightblue" points="331.852,-312.752 330.514,-323.262 338.114,-315.88 331.852,-312.752"/>
</g>
<!-- Node14 -->
<g id="node14" class="node"><title>Node14</title>
<g id="a_node14"><a xlink:href="class_i_plug_reaper_v_s_t2.html" target="_top" xlink:title="Reaper specific VST2.4 API base class for an IPlug plug&#45;in. ">
<polygon fill="white" stroke="black" points="604,-323.5 604,-342.5 701,-342.5 701,-323.5 604,-323.5"/>
<text text-anchor="middle" x="652.5" y="-330.5" font-family="Helvetica,sans-Serif" font-size="10.00">IPlugReaperVST2</text>
</a>
</g>
</g>
<!-- Node13&#45;&gt;Node14 -->
<g id="edge11" class="edge"><title>Node13&#45;&gt;Node14</title>
<path fill="none" stroke="midnightblue" d="M535.68,-333C556.586,-333 582.094,-333 603.845,-333"/>
<polygon fill="midnightblue" stroke="midnightblue" points="535.518,-329.5 525.518,-333 535.518,-336.5 535.518,-329.5"/>
</g>
<!-- Node19 -->
<g id="node19" class="node"><title>Node19</title>
<polygon fill="white" stroke="#bfbfbf" points="454.5,-133.5 454.5,-152.5 532.5,-152.5 532.5,-133.5 454.5,-133.5"/>
<text text-anchor="middle" x="493.5" y="-140.5" font-family="Helvetica,sans-Serif" font-size="10.00">IMidiMapping</text>
</g>
<!-- Node19&#45;&gt;Node6 -->
<g id="edge18" class="edge"><title>Node19&#45;&gt;Node6</title>
<path fill="none" stroke="midnightblue" d="M542.886,-137.144C560.089,-135.062 579.566,-132.705 597.229,-130.568"/>
<polygon fill="midnightblue" stroke="midnightblue" points="542.012,-133.724 532.505,-138.401 542.853,-140.674 542.012,-133.724"/>
</g>
<!-- Node20 -->
<g id="node20" class="node"><title>Node20</title>
<g id="a_node20"><a xlink:href="class_i_plug_processor.html" target="_top" xlink:title="IPlugProcessor\&lt; float \&gt;">
<polygon fill="white" stroke="black" points="260,-0.5 260,-19.5 390,-19.5 390,-0.5 260,-0.5"/>
<text text-anchor="middle" x="325" y="-7.5" font-family="Helvetica,sans-Serif" font-size="10.00">IPlugProcessor&lt; float &gt;</text>
</a>
</g>
</g>
<!-- Node20&#45;&gt;Node16 -->
<g id="edge19" class="edge"><title>Node20&#45;&gt;Node16</title>
<path fill="none" stroke="midnightblue" d="M400.32,-18.4809C422.142,-20.9712 444.793,-23.556 462.181,-25.5401"/>
<polygon fill="midnightblue" stroke="midnightblue" points="400.706,-15.0023 390.373,-17.3459 399.912,-21.9572 400.706,-15.0023"/>
</g>
<!-- Node21 -->
<g id="node21" class="node"><title>Node21</title>
<g id="a_node21"><a xlink:href="class_i_plug_processor.html" target="_top" xlink:title="IPlugProcessor\&lt; PLUG\l_SAMPLE_DST \&gt;">
<polygon fill="white" stroke="black" points="263.5,-432 263.5,-462 386.5,-462 386.5,-432 263.5,-432"/>
<text text-anchor="start" x="271.5" y="-450" font-family="Helvetica,sans-Serif" font-size="10.00">IPlugProcessor&lt; PLUG</text>
<text text-anchor="middle" x="325" y="-439" font-family="Helvetica,sans-Serif" font-size="10.00">_SAMPLE_DST &gt;</text>
</a>
</g>
</g>
<!-- Node21&#45;&gt;Node2 -->
<g id="edge20" class="edge"><title>Node21&#45;&gt;Node2</title>
<path fill="none" stroke="midnightblue" d="M344.358,-469.923C362.818,-491.509 393.182,-523.252 426,-542 437.573,-548.611 451.612,-553.061 463.803,-555.981"/>
<polygon fill="midnightblue" stroke="midnightblue" points="346.99,-467.614 337.886,-462.195 341.623,-472.109 346.99,-467.614"/>
</g>
<!-- Node21&#45;&gt;Node11 -->
<g id="edge21" class="edge"><title>Node21&#45;&gt;Node11</title>
<path fill="none" stroke="midnightblue" d="M396.368,-430.94C420.296,-425.479 445.68,-419.686 464.351,-415.424"/>
<polygon fill="midnightblue" stroke="midnightblue" points="395.552,-427.536 386.581,-433.174 397.109,-434.361 395.552,-427.536"/>
</g>
<!-- Node21&#45;&gt;Node12 -->
<g id="edge22" class="edge"><title>Node21&#45;&gt;Node12</title>
<path fill="none" stroke="midnightblue" d="M396.783,-447C421.732,-447 448.211,-447 466.979,-447"/>
<polygon fill="midnightblue" stroke="midnightblue" points="396.581,-443.5 386.581,-447 396.581,-450.5 396.581,-443.5"/>
</g>
<!-- Node21&#45;&gt;Node13 -->
<g id="edge23" class="edge"><title>Node21&#45;&gt;Node13</title>
<path fill="none" stroke="midnightblue" d="M356.368,-426.207C392.658,-401.36 451.825,-360.85 478.581,-342.53"/>
<polygon fill="midnightblue" stroke="midnightblue" points="354.384,-423.324 348.11,-431.862 358.339,-429.1 354.384,-423.324"/>
</g>
<!-- Node22 -->
<g id="node22" class="node"><title>Node22</title>
<g id="a_node22"><a xlink:href="class_i_plug_v_s_t3_processor_base.html" target="_top" xlink:title="Shared VST3 processor code. ">
<polygon fill="white" stroke="black" points="426,-475.5 426,-494.5 561,-494.5 561,-475.5 426,-475.5"/>
<text text-anchor="middle" x="493.5" y="-482.5" font-family="Helvetica,sans-Serif" font-size="10.00">IPlugVST3ProcessorBase</text>
</a>
</g>
</g>
<!-- Node21&#45;&gt;Node22 -->
<g id="edge24" class="edge"><title>Node21&#45;&gt;Node22</title>
<path fill="none" stroke="midnightblue" d="M396.44,-463.076C414.921,-467.294 434.264,-471.709 450.709,-475.462"/>
<polygon fill="midnightblue" stroke="midnightblue" points="397.109,-459.639 386.581,-460.826 395.552,-466.464 397.109,-459.639"/>
</g>
<!-- Node22&#45;&gt;Node4 -->
<g id="edge26" class="edge"><title>Node22&#45;&gt;Node4</title>
<path fill="none" stroke="midnightblue" d="M571.159,-485C579.776,-485 588.422,-485 596.682,-485"/>
<polygon fill="midnightblue" stroke="midnightblue" points="571.082,-481.5 561.082,-485 571.082,-488.5 571.082,-481.5"/>
</g>
<!-- Node22&#45;&gt;Node15 -->
<g id="edge25" class="edge"><title>Node22&#45;&gt;Node15</title>
<path fill="none" stroke="midnightblue" d="M556.999,-469.679C558.407,-468.538 559.746,-467.313 561,-466 608.955,-415.8 557.958,-371.406 597,-314 605.433,-301.601 619.355,-291.995 631.017,-285.544"/>
<polygon fill="midnightblue" stroke="midnightblue" points="554.751,-466.966 548.274,-475.35 558.566,-472.835 554.751,-466.966"/>
</g>
<!-- Node23 -->
<g id="node23" class="node"><title>Node23</title>
<g id="a_node23"><a xlink:href="class_i_plug_v_s_t3_controller_base.html" target="_top" xlink:title="Shared VST3 controller code. ">
<polygon fill="white" stroke="black" points="426.5,-209.5 426.5,-228.5 560.5,-228.5 560.5,-209.5 426.5,-209.5"/>
<text text-anchor="middle" x="493.5" y="-216.5" font-family="Helvetica,sans-Serif" font-size="10.00">IPlugVST3ControllerBase</text>
</a>
</g>
</g>
<!-- Node23&#45;&gt;Node6 -->
<g id="edge28" class="edge"><title>Node23&#45;&gt;Node6</title>
<path fill="none" stroke="midnightblue" d="M547.655,-206.03C552.269,-204.245 556.782,-202.241 561,-200 594.881,-181.997 627.553,-149.743 642.705,-133.664"/>
<polygon fill="midnightblue" stroke="midnightblue" points="546.371,-202.772 538.103,-209.396 548.697,-209.374 546.371,-202.772"/>
</g>
<!-- Node23&#45;&gt;Node15 -->
<g id="edge27" class="edge"><title>Node23&#45;&gt;Node15</title>
<path fill="none" stroke="midnightblue" d="M530.574,-231.995C540.441,-235.556 551.135,-239.421 561,-243 582.695,-250.87 607.299,-259.845 625.37,-266.446"/>
<polygon fill="midnightblue" stroke="midnightblue" points="531.636,-228.657 521.042,-228.556 529.261,-235.242 531.636,-228.657"/>
</g>
<!-- Node24 -->
<g id="node24" class="node"><title>Node24</title>
<polygon fill="white" stroke="#bfbfbf" points="293,-38.5 293,-57.5 357,-57.5 357,-38.5 293,-38.5"/>
<text text-anchor="middle" x="325" y="-45.5" font-family="Helvetica,sans-Serif" font-size="10.00">Processor</text>
</g>
<!-- Node24&#45;&gt;Node16 -->
<g id="edge29" class="edge"><title>Node24&#45;&gt;Node16</title>
<path fill="none" stroke="midnightblue" d="M367.324,-43.2843C396.838,-39.9164 435.865,-35.4628 462.445,-32.4298"/>
<polygon fill="midnightblue" stroke="midnightblue" points="366.856,-39.8149 357.317,-44.4262 367.65,-46.7698 366.856,-39.8149"/>
</g>
<!-- Node25 -->
<g id="node25" class="node"><title>Node25</title>
<polygon fill="white" stroke="#bfbfbf" points="429,-285.5 429,-304.5 558,-304.5 558,-285.5 429,-285.5"/>
<text text-anchor="middle" x="493.5" y="-292.5" font-family="Helvetica,sans-Serif" font-size="10.00">SingleComponentEffect</text>
</g>
<!-- Node25&#45;&gt;Node15 -->
<g id="edge30" class="edge"><title>Node25&#45;&gt;Node15</title>
<path fill="none" stroke="midnightblue" d="M568.471,-286.048C586.781,-283.832 605.421,-281.576 620.388,-279.765"/>
<polygon fill="midnightblue" stroke="midnightblue" points="567.865,-282.596 558.358,-287.272 568.706,-289.545 567.865,-282.596"/>
</g>
</g>
</svg>
