<?xml version="1.0" encoding="UTF-8" standalone="no"?>
<!DOCTYPE svg PUBLIC "-//W3C//DTD SVG 1.1//EN"
 "http://www.w3.org/Graphics/SVG/1.1/DTD/svg11.dtd">
<!-- Generated by graphviz version 2.38.0 (20140413.2041)
 -->
<!-- Title: Graphical Class Hierarchy Pages: 1 -->
<svg width="309pt" height="104pt"
 viewBox="0.00 0.00 309.00 104.00" xmlns="http://www.w3.org/2000/svg" xmlns:xlink="http://www.w3.org/1999/xlink">
<g id="graph0" class="graph" transform="scale(1 1) rotate(0) translate(4 100)">
<title>Graphical Class Hierarchy</title>
<polygon fill="white" stroke="none" points="-4,4 -4,-100 305,-100 305,4 -4,4"/>
<!-- Node1 -->
<g id="node1" class="node"><title>Node1</title>
<g id="a_node1"><a xlink:href="class_platform_font.html" target="_top" xlink:title="/todo ">
<polygon fill="white" stroke="black" points="0,-38.5 0,-57.5 78,-57.5 78,-38.5 0,-38.5"/>
<text text-anchor="middle" x="39" y="-45.5" font-family="Helvetica,sans-Serif" font-size="10.00">PlatformFont</text>
</a>
</g>
</g>
<!-- Node2 -->
<g id="node2" class="node"><title>Node2</title>
<g id="a_node2"><a xlink:href="class_core_text_font.html" target="_top" xlink:title="CoreTextFont">
<polygon fill="white" stroke="black" points="114,-76.5 114,-95.5 193,-95.5 193,-76.5 114,-76.5"/>
<text text-anchor="middle" x="153.5" y="-83.5" font-family="Helvetica,sans-Serif" font-size="10.00">CoreTextFont</text>
</a>
</g>
</g>
<!-- Node1&#45;&gt;Node2 -->
<g id="edge1" class="edge"><title>Node1&#45;&gt;Node2</title>
<path fill="none" stroke="midnightblue" d="M77.9715,-60.8259C93.0666,-65.9247 110.132,-71.6891 124.121,-76.4141"/>
<polygon fill="midnightblue" stroke="midnightblue" points="78.9827,-57.4733 68.3885,-57.589 76.7426,-64.1052 78.9827,-57.4733"/>
</g>
<!-- Node3 -->
<g id="node3" class="node"><title>Node3</title>
<g id="a_node3"><a xlink:href="class_web_font.html" target="_top" xlink:title="WebFont">
<polygon fill="white" stroke="black" points="125,-38.5 125,-57.5 182,-57.5 182,-38.5 125,-38.5"/>
<text text-anchor="middle" x="153.5" y="-45.5" font-family="Helvetica,sans-Serif" font-size="10.00">WebFont</text>
</a>
</g>
</g>
<!-- Node1&#45;&gt;Node3 -->
<g id="edge2" class="edge"><title>Node1&#45;&gt;Node3</title>
<path fill="none" stroke="midnightblue" d="M88.3605,-48C100.803,-48 113.771,-48 124.763,-48"/>
<polygon fill="midnightblue" stroke="midnightblue" points="88.0874,-44.5001 78.0874,-48 88.0873,-51.5001 88.0874,-44.5001"/>
</g>
<!-- Node5 -->
<g id="node5" class="node"><title>Node5</title>
<g id="a_node5"><a xlink:href="class_win_font.html" target="_top" xlink:title="WinFont">
<polygon fill="white" stroke="black" points="126.5,-0.5 126.5,-19.5 180.5,-19.5 180.5,-0.5 126.5,-0.5"/>
<text text-anchor="middle" x="153.5" y="-7.5" font-family="Helvetica,sans-Serif" font-size="10.00">WinFont</text>
</a>
</g>
</g>
<!-- Node1&#45;&gt;Node5 -->
<g id="edge4" class="edge"><title>Node1&#45;&gt;Node5</title>
<path fill="none" stroke="midnightblue" d="M77.9748,-35.173C93.912,-29.7897 112.045,-23.6648 126.434,-18.8045"/>
<polygon fill="midnightblue" stroke="midnightblue" points="76.7426,-31.8948 68.3885,-38.411 78.9827,-38.5267 76.7426,-31.8948"/>
</g>
<!-- Node4 -->
<g id="node4" class="node"><title>Node4</title>
<g id="a_node4"><a xlink:href="class_web_file_font.html" target="_top" xlink:title="WebFileFont">
<polygon fill="white" stroke="black" points="229,-38.5 229,-57.5 301,-57.5 301,-38.5 229,-38.5"/>
<text text-anchor="middle" x="265" y="-45.5" font-family="Helvetica,sans-Serif" font-size="10.00">WebFileFont</text>
</a>
</g>
</g>
<!-- Node3&#45;&gt;Node4 -->
<g id="edge3" class="edge"><title>Node3&#45;&gt;Node4</title>
<path fill="none" stroke="midnightblue" d="M192.214,-48C204.109,-48 217.196,-48 228.902,-48"/>
<polygon fill="midnightblue" stroke="midnightblue" points="192.132,-44.5001 182.131,-48 192.131,-51.5001 192.132,-44.5001"/>
</g>
</g>
</svg>
